<svg width="48" height="48" viewBox="0 0 48 48" fill="none" xmlns="http://www.w3.org/2000/svg">
<path d="M37.5 13.8744H10.5V10.5H37.5V13.8744ZM27.3754 20.6231H10.5V17.2487H27.3754V20.6231ZM37.5 27.4445H10.5V24.0702H37.5V27.4445Z" fill="white"/>
<path d="M12.1874 36.823C13.1194 36.823 13.8749 36.0676 13.8749 35.1358C13.8749 34.204 13.1194 33.4486 12.1874 33.4486C11.2555 33.4486 10.5 34.204 10.5 35.1358C10.5 36.0676 11.2555 36.823 12.1874 36.823Z" fill="white"/>
<path d="M20.2538 35.1317C20.2542 35.4659 20.1555 35.7928 19.97 36.0709C19.7846 36.3489 19.5208 36.5658 19.2121 36.6939C18.9033 36.8221 18.5635 36.8557 18.2356 36.7907C17.9077 36.7257 17.6065 36.5648 17.3701 36.3286C17.1336 36.0923 16.9726 35.7912 16.9074 35.4634C16.8421 35.1356 16.8756 34.7959 17.0036 34.4871C17.1315 34.1783 17.3482 33.9144 17.6263 33.7289C17.9043 33.5433 18.2311 33.4443 18.5654 33.4445C19.0135 33.4445 19.4432 33.6225 19.76 33.9393C20.0769 34.2561 20.2549 34.6857 20.2549 35.1338L20.2538 35.1317Z" fill="white"/>
<path d="M24.9423 36.823C25.8742 36.823 26.6297 36.0676 26.6297 35.1358C26.6297 34.204 25.8742 33.4486 24.9423 33.4486C24.0104 33.4486 23.2549 34.204 23.2549 35.1358C23.2549 36.0676 24.0104 36.823 24.9423 36.823Z" fill="white"/>
</svg>
