<svg width="48" height="48" viewBox="0 0 48 48" fill="none" xmlns="http://www.w3.org/2000/svg">
<path d="M34.6522 19.9477H13.3494C12.9184 19.9486 12.4931 20.0467 12.1052 20.2347C11.7174 20.4227 11.3769 20.6957 11.1091 21.0335C10.8432 21.3709 10.6573 21.7642 10.5655 22.1839C10.4737 22.6036 10.4785 23.0386 10.5793 23.4562L12.8634 32.8084C13.1935 34.0137 13.9117 35.0765 14.9067 35.8324C15.9021 36.5899 17.1208 37 18.3745 37H29.6242C30.8779 37 32.0966 36.5899 33.092 35.8324C34.087 35.0765 34.8052 34.0137 35.1353 32.8084L37.4194 23.4577C37.5731 22.8273 37.5057 22.1632 37.2283 21.5766C36.9509 20.9899 36.4805 20.5164 35.8957 20.2352C35.5072 20.0467 35.0811 19.9484 34.6493 19.9477M18.2898 25.6308V31.3154M24.0008 25.6308V31.3154M29.7118 25.6308V31.3154M33.9954 19.9477C33.9949 18.6401 33.736 17.3454 33.2336 16.1382C32.7311 14.931 31.9951 13.8349 31.0677 12.9131C29.1896 11.0462 26.6489 9.99889 24.0008 10C21.3528 9.99889 18.812 11.0462 16.934 12.9131C16.0068 13.8351 15.271 14.9312 14.7688 16.1384C14.2667 17.3456 14.008 18.6402 14.0077 19.9477" stroke="white" stroke-width="1.5" stroke-linecap="round" stroke-linejoin="round"/>
</svg>
