<svg width="48" height="48" viewBox="0 0 48 48" fill="none" xmlns="http://www.w3.org/2000/svg">
<path d="M13.7576 32.7228L14.6807 31.5096C14.8644 31.2757 14.9605 30.9688 14.9482 30.6549V30.4554C14.9585 30.3629 14.9501 30.2689 14.9237 30.1806C14.8973 30.0924 14.8535 30.0122 14.7958 29.9462C14.738 29.8803 14.6678 29.8303 14.5905 29.8001C14.5133 29.77 14.431 29.7604 14.35 29.7722H11.3437C11.2318 29.7722 11.1245 29.823 11.0453 29.9133C10.9662 30.0037 10.9218 30.1262 10.9218 30.254V31.2176C10.9218 31.3454 10.9662 31.4679 11.0453 31.5583C11.1245 31.6487 11.2318 31.6994 11.3437 31.6994H12.5477C12.343 31.9347 12.1492 32.182 11.9672 32.4404L11.671 32.8625C11.5695 32.977 11.501 33.1241 11.4746 33.2842C11.4482 33.4444 11.4652 33.6099 11.5234 33.7587L11.5791 33.8753C11.6277 34.0233 11.7168 34.1494 11.8333 34.2348C11.9498 34.3203 12.0873 34.3604 12.2254 34.3493H12.4785C13.0236 34.3493 13.3223 34.4968 13.3223 34.8967C13.3223 35.1858 13.1004 35.392 12.5629 35.392C12.2829 35.3894 12.006 35.3256 11.747 35.2041C11.4044 34.9699 11.1277 34.993 10.9243 35.392L10.6298 35.9528C10.5783 36.0241 10.5407 36.1072 10.5196 36.1965C10.4985 36.2858 10.4944 36.3792 10.5075 36.4705C10.5206 36.5617 10.5506 36.6487 10.5956 36.7257C10.6406 36.8026 10.6994 36.8676 10.7682 36.9164C11.3619 37.3036 12.0363 37.5001 12.7198 37.4849C13.0447 37.5247 13.3733 37.4854 13.6839 37.3696C13.9945 37.2537 14.2801 37.0639 14.5217 36.8128C14.7634 36.5617 14.9557 36.2548 15.0859 35.9126C15.2162 35.5703 15.2814 35.2004 15.2772 34.8273C15.2717 34.3313 15.118 33.8524 14.8417 33.4697C14.5654 33.087 14.1829 32.8235 13.7576 32.7228ZM36.6562 22.0633H19.7812C19.5574 22.0633 19.3428 22.1648 19.1846 22.3456C19.0263 22.5263 18.9374 22.7714 18.9374 23.0269V24.9542C18.9374 25.2097 19.0263 25.4548 19.1846 25.6355C19.3428 25.8162 19.5574 25.9178 19.7812 25.9178H36.6562C36.88 25.9178 37.0946 25.8162 37.2529 25.6355C37.4111 25.4548 37.5 25.2097 37.5 24.9542V23.0269C37.5 22.7714 37.4111 22.5263 37.2529 22.3456C37.0946 22.1648 36.88 22.0633 36.6562 22.0633ZM36.6562 12.4272H19.7812C19.5574 12.4272 19.3428 12.5287 19.1846 12.7095C19.0263 12.8902 18.9374 13.1353 18.9374 13.3908V15.3181C18.9374 15.5736 19.0263 15.8187 19.1846 15.9994C19.3428 16.1801 19.5574 16.2817 19.7812 16.2817H36.6562C36.88 16.2817 37.0946 16.1801 37.2529 15.9994C37.4111 15.8187 37.5 15.5736 37.5 15.3181V13.3908C37.5 13.1353 37.4111 12.8902 37.2529 12.7095C37.0946 12.5287 36.88 12.4272 36.6562 12.4272ZM36.6562 31.6994H19.7812C19.5574 31.6994 19.3428 31.8009 19.1846 31.9817C19.0263 32.1624 18.9374 32.4075 18.9374 32.663V34.5903C18.9374 34.8458 19.0263 35.0909 19.1846 35.2716C19.3428 35.4523 19.5574 35.5539 19.7812 35.5539H36.6562C36.88 35.5539 37.0946 35.4523 37.2529 35.2716C37.4111 35.0909 37.5 34.8458 37.5 34.5903V32.663C37.5 32.4075 37.4111 32.1624 37.2529 31.9817C37.0946 31.8009 36.88 31.6994 36.6562 31.6994ZM11.3437 18.2089H14.7187C14.8306 18.2089 14.9379 18.1581 15.017 18.0678C15.0961 17.9774 15.1405 17.8549 15.1405 17.7271V16.7635C15.1405 16.6357 15.0961 16.5131 15.017 16.4228C14.9379 16.3324 14.8306 16.2817 14.7187 16.2817H13.8749V10.9818C13.8749 10.854 13.8305 10.7315 13.7514 10.6411C13.6722 10.5508 13.5649 10.5 13.453 10.5H12.1874C12.1093 10.5002 12.0327 10.5251 11.9663 10.5721C11.8998 10.6191 11.8461 10.6862 11.8111 10.766L11.3892 11.7296C11.357 11.8029 11.3418 11.8845 11.3449 11.9665C11.3481 12.0485 11.3695 12.1282 11.4072 12.1981C11.4449 12.268 11.4976 12.3257 11.5603 12.3658C11.623 12.4059 11.6937 12.4271 11.7655 12.4272H12.1874V16.2817H11.3437C11.2318 16.2817 11.1245 16.3324 11.0453 16.4228C10.9662 16.5131 10.9218 16.6357 10.9218 16.7635V17.7271C10.9218 17.8549 10.9662 17.9774 11.0453 18.0678C11.1245 18.1581 11.2318 18.2089 11.3437 18.2089ZM11.1378 27.845H14.7187C14.8306 27.845 14.9379 27.7942 15.017 27.7039C15.0961 27.6135 15.1405 27.491 15.1405 27.3632V26.3996C15.1405 26.2718 15.0961 26.1492 15.017 26.0589C14.9379 25.9685 14.8306 25.9178 14.7187 25.9178H12.6785C12.8523 25.2982 15.2275 24.7932 15.2275 22.5181C15.222 22.1815 15.1556 21.8499 15.0324 21.544C14.9092 21.2381 14.7319 20.9647 14.5116 20.7409C14.2914 20.5172 14.0329 20.3479 13.7526 20.2438C13.4722 20.1397 13.176 20.1031 12.8827 20.1361C12.4745 20.1164 12.0682 20.2087 11.6977 20.4052C11.3271 20.6016 11.0032 20.8966 10.753 21.2655C10.6999 21.3331 10.6611 21.4137 10.6394 21.5011C10.6178 21.5885 10.6139 21.6804 10.6282 21.7698C10.6424 21.8592 10.6744 21.9436 10.7216 22.0167C10.7689 22.0898 10.8301 22.1496 10.9007 22.1915L11.3529 22.6058C11.6491 22.8805 11.9334 22.7542 12.2026 22.4584C12.3357 22.3094 12.5149 22.2263 12.7013 22.2271C12.7646 22.2205 12.8284 22.2294 12.8886 22.2531C12.9487 22.2768 13.0037 22.3149 13.05 22.3647C13.0962 22.4146 13.1327 22.4751 13.157 22.5422C13.1812 22.6094 13.1927 22.6816 13.1906 22.7542C13.1906 23.5251 10.5024 24.0696 10.5024 26.917V27.1579C10.4985 27.2527 10.5125 27.3473 10.5435 27.4353C10.5745 27.5233 10.6218 27.6027 10.6821 27.6679C10.7424 27.7331 10.8144 27.7827 10.893 27.8133C10.9717 27.8438 11.0551 27.8547 11.1378 27.845Z" fill="white"/>
</svg>
