<svg width="48" height="48" viewBox="0 0 48 48" fill="none" xmlns="http://www.w3.org/2000/svg">
<path d="M30.0745 10.5004C28.9192 10.51 27.7792 10.7895 26.7313 11.3199C25.6835 11.8504 24.7521 12.6195 24 13.5754C23.2478 12.6194 22.3163 11.8502 21.2683 11.3197C20.2202 10.7893 19.0801 10.5099 17.9246 10.5004C16.947 10.4899 15.9772 10.6921 15.0721 11.095C14.167 11.498 13.3447 12.0937 12.6534 12.8472C11.9621 13.6007 11.4156 14.497 11.0459 15.4835C10.6762 16.4701 10.4907 17.5271 10.5004 18.5927C10.5004 24.1549 15.0897 28.6871 22.0423 35.5727L24 37.5L25.9577 35.5578C32.9094 28.6861 37.4996 24.1549 37.4996 18.5927C37.5093 17.527 37.3238 16.4699 36.954 15.4833C36.5843 14.4967 36.0377 13.6004 35.3463 12.8469C34.6549 12.0933 33.8325 11.4976 32.9273 11.0947C32.0221 10.6918 31.0523 10.4898 30.0745 10.5004ZM24.1346 33.3809L24 33.5277L23.8654 33.3809C17.4393 27.0393 13.2006 22.8454 13.2006 18.5927C13.1853 17.9119 13.2971 17.2347 13.5291 16.6023C13.7612 15.97 14.1086 15.3956 14.5505 14.914C14.9923 14.4324 15.5193 14.0537 16.0994 13.8008C16.6796 13.5479 17.3008 13.4261 17.9255 13.4427C18.9515 13.4482 19.9537 13.7795 20.8097 14.3962C21.6656 15.0129 22.338 15.8882 22.7446 16.915H25.2691C25.671 15.8883 26.3399 15.0124 27.1933 14.3954C28.0466 13.7783 29.0471 13.4472 30.0711 13.4427C30.6958 13.4261 31.317 13.5479 31.8972 13.8008C32.4773 14.0537 33.0043 14.4324 33.4461 14.914C33.8879 15.3956 34.2354 15.97 34.4674 16.6023C34.6995 17.2347 34.8112 17.9119 34.7959 18.5927C34.7994 22.8454 30.5599 27.0393 24.1346 33.3809Z" fill="white"/>
</svg>
