<svg width="17" height="21" viewBox="0 0 17 21" fill="none" xmlns="http://www.w3.org/2000/svg">
<path d="M7.94129 19.8196L1.76929 13.1894C1.24063 12.6415 0.823388 12.0115 0.537291 11.329C0.0575651 10.1525 -0.103157 8.88702 0.0689301 7.64113C0.241018 6.39525 0.740773 5.20619 1.52529 4.17605C2.30647 3.14457 3.34898 2.30169 4.5636 1.71956C5.77822 1.13742 7.12879 0.833344 8.49978 0.833344C9.87077 0.833344 11.2214 1.13742 12.436 1.71956C13.6506 2.30169 14.6931 3.14457 15.4743 4.17605C16.2594 5.20684 16.7593 6.39677 16.931 7.64353C17.1028 8.8903 16.9412 10.1566 16.4603 11.3336C16.1743 12.0151 15.7574 12.6442 15.2293 13.1912L9.05929 19.8223C8.99038 19.8964 8.90471 19.956 8.80819 19.9968C8.71167 20.0376 8.60661 20.0588 8.50029 20.0588C8.39396 20.0588 8.28891 20.0376 8.19239 19.9968C8.09587 19.956 8.0102 19.8964 7.94129 19.8223V19.8196ZM2.73429 4.93776C2.08462 5.78976 1.67058 6.77341 1.52775 7.80421C1.38492 8.83502 1.51756 9.88216 1.91429 10.8557C2.14002 11.3905 2.46892 11.8839 2.88529 12.3123L8.50129 18.3474L14.1143 12.3169C14.5296 11.8893 14.8581 11.3973 15.0843 10.8639C15.4818 9.88981 15.615 8.84187 15.4724 7.81022C15.3297 6.77857 14.9155 5.79409 14.2653 4.94142C13.6192 4.08896 12.7573 3.39243 11.7532 2.91137C10.749 2.43031 9.63259 2.17902 8.49929 2.17902C7.36599 2.17902 6.24954 2.43031 5.24541 2.91137C4.24128 3.39243 3.37934 4.08896 2.73329 4.94142L2.73429 4.93776ZM4.38629 8.58336C4.3857 7.83831 4.62647 7.10983 5.07816 6.49008C5.52985 5.87033 6.17217 5.38715 6.92385 5.10166C7.67553 4.81616 8.50281 4.7412 9.30105 4.88622C10.0993 5.03123 10.8326 5.38973 11.4083 5.91637C11.9839 6.44301 12.376 7.11412 12.535 7.84481C12.694 8.57551 12.6127 9.33296 12.3014 10.0214C11.9901 10.7097 11.4628 11.2981 10.7862 11.7121C10.1096 12.1261 9.31409 12.3471 8.50029 12.3471C7.4096 12.3466 6.3637 11.9499 5.59219 11.2441C4.82068 10.5382 4.38662 9.58098 4.38529 8.58244L4.38629 8.58336ZM5.85529 8.58336C5.8549 9.06238 6.00968 9.53074 6.30008 9.92921C6.59047 10.3277 7.00343 10.6383 7.4867 10.8219C7.96998 11.0055 8.50186 11.0537 9.01507 10.9605C9.52829 10.8672 9.99977 10.6367 10.3699 10.2981C10.74 9.95956 10.9921 9.52809 11.0943 9.05831C11.1965 8.58852 11.1443 8.10152 10.9441 7.65893C10.744 7.21634 10.405 6.83805 9.96998 6.57189C9.53497 6.30572 9.0235 6.16364 8.50029 6.16364C7.79947 6.16412 7.12747 6.41903 6.63164 6.87246C6.1358 7.32589 5.85662 7.94083 5.85529 8.58244V8.58336Z" fill="#4A4A4A"/>
</svg>
