<svg width="16" height="11" viewBox="0 0 16 11" fill="none" xmlns="http://www.w3.org/2000/svg">
<path d="M8.00376 7.29348L13.9788 1.31448C14.0832 1.20929 14.2075 1.12581 14.3443 1.06884C14.4812 1.01187 14.628 0.982544 14.7763 0.982544C14.9245 0.982544 15.0713 1.01187 15.2082 1.06884C15.345 1.12581 15.4693 1.20929 15.5738 1.31448C15.7841 1.52763 15.902 1.81503 15.902 2.11448C15.902 2.41392 15.7841 2.70133 15.5738 2.91448L8.80376 9.68848C8.59835 9.89329 8.32188 10.011 8.03188 10.0172C7.74187 10.0233 7.46066 9.91741 7.24676 9.72148L0.429761 2.92148C0.217588 2.70997 0.0981265 2.42283 0.0976576 2.12324C0.0971888 1.82365 0.215751 1.53615 0.427261 1.32398C0.638771 1.1118 0.925904 0.992343 1.22549 0.991874C1.52508 0.991405 1.81259 1.10997 2.02476 1.32148L8.00376 7.29348Z" fill="#858D9A"/>
</svg>
