<svg width="32" height="32" viewBox="0 0 32 32" fill="none" xmlns="http://www.w3.org/2000/svg">
<path fill-rule="evenodd" clip-rule="evenodd" d="M12.729 5.67403C12.2705 5.674 11.821 5.80169 11.431 6.04279C11.041 6.28389 10.7259 6.62887 10.521 7.03903L8.962 10.156C8.89366 10.2927 8.78861 10.4077 8.65862 10.4881C8.52863 10.5684 8.37883 10.611 8.226 10.611H4.113C3.45845 10.611 2.8307 10.8711 2.36786 11.3339C1.90502 11.7967 1.645 12.4245 1.645 13.079V27.887C1.645 28.5416 1.90502 29.1693 2.36786 29.6322C2.8307 30.095 3.45845 30.355 4.113 30.355H27.149C27.8036 30.355 28.4313 30.095 28.8941 29.6322C29.357 29.1693 29.617 28.5416 29.617 27.887V12.256C29.6244 12.0429 29.7143 11.8409 29.8678 11.6927C30.0212 11.5445 30.2262 11.4617 30.4395 11.4617C30.6528 11.4617 30.8578 11.5445 31.0112 11.6927C31.1647 11.8409 31.2546 12.0429 31.262 12.256V27.887C31.262 28.9779 30.8287 30.024 30.0573 30.7954C29.286 31.5667 28.2398 32 27.149 32H4.113C3.02216 32 1.97601 31.5667 1.20467 30.7954C0.433333 30.024 1.21577e-07 28.9779 1.21577e-07 27.887V13.079C-0.000131221 12.5388 0.106158 12.0039 0.312796 11.5047C0.519435 11.0056 0.822376 10.5521 1.20432 10.1701C1.58626 9.78802 2.03972 9.48497 2.53879 9.27821C3.03787 9.07145 3.57279 8.96503 4.113 8.96503H7.713L9.05 6.30303C9.39156 5.61973 9.91667 5.04506 10.5665 4.64341C11.2163 4.24177 11.9651 4.02903 12.729 4.02903H18.1C18.2104 4.02518 18.3205 4.04361 18.4236 4.08321C18.5268 4.12281 18.6209 4.18277 18.7004 4.25953C18.7799 4.33629 18.8431 4.42826 18.8863 4.52997C18.9294 4.63168 18.9517 4.74104 18.9517 4.85153C18.9517 4.96203 18.9294 5.07139 18.8863 5.1731C18.8431 5.27481 18.7799 5.36678 18.7004 5.44354C18.6209 5.52029 18.5268 5.58026 18.4236 5.61986C18.3205 5.65946 18.2104 5.67788 18.1 5.67403H12.729Z" fill="#204F38"/>
<path fill-rule="evenodd" clip-rule="evenodd" d="M15.6266 13.901C14.4875 13.901 13.3741 14.2388 12.427 14.8716C11.48 15.5044 10.7418 16.4038 10.3059 17.4562C9.87006 18.5085 9.75601 19.6664 9.97822 20.7836C10.2004 21.9007 10.7489 22.9269 11.5543 23.7323C12.3597 24.5377 13.3859 25.0862 14.503 25.3084C15.6202 25.5306 16.7781 25.4165 17.8304 24.9807C18.8828 24.5448 19.7822 23.8066 20.415 22.8596C21.0478 21.9125 21.3856 20.7991 21.3856 19.66C21.3856 18.1327 20.7788 16.6678 19.6988 15.5878C18.6188 14.5078 17.1539 13.901 15.6266 13.901ZM8.22656 19.66C8.22656 18.1965 8.66056 16.7657 9.47369 15.5488C10.2868 14.3319 11.4425 13.3834 12.7947 12.8233C14.1469 12.2632 15.6348 12.1167 17.0702 12.4022C18.5057 12.6878 19.8242 13.3925 20.8592 14.4274C21.8941 15.4624 22.5988 16.7809 22.8844 18.2164C23.1699 19.6518 23.0234 21.1397 22.4633 22.4919C21.9032 23.8441 20.9547 24.9998 19.7378 25.8129C18.5209 26.626 17.0901 27.06 15.6266 27.06C13.664 27.06 11.7817 26.2804 10.394 24.8926C9.0062 23.5049 8.22656 21.6226 8.22656 19.66ZM23.0346 4.85204C23.0346 4.63376 23.1213 4.42443 23.2756 4.27009C23.43 4.11575 23.6393 4.02904 23.8576 4.02904H30.4396C30.6527 4.03647 30.8547 4.12638 31.0029 4.27982C31.1511 4.43326 31.2339 4.63823 31.2339 4.85154C31.2339 5.06484 31.1511 5.26982 31.0029 5.42326C30.8547 5.57669 30.6527 5.6666 30.4396 5.67404H23.8576C23.6395 5.67404 23.4303 5.58747 23.276 5.43334C23.1217 5.27921 23.0348 5.07014 23.0346 4.85204Z" fill="#204F38"/>
<path fill-rule="evenodd" clip-rule="evenodd" d="M27.1487 8.96503C27.0403 8.96504 26.9329 8.94362 26.8328 8.90201C26.7327 8.8604 26.6418 8.79942 26.5653 8.72257C26.4889 8.64572 26.4283 8.55452 26.3872 8.45421C26.3461 8.3539 26.3252 8.24645 26.3257 8.13803V1.56103C26.3218 1.45061 26.3403 1.34054 26.3799 1.23739C26.4195 1.13423 26.4794 1.04011 26.5562 0.960633C26.6329 0.881153 26.7249 0.817943 26.8266 0.774771C26.9283 0.7316 27.0377 0.709351 27.1482 0.709351C27.2587 0.709351 27.368 0.7316 27.4698 0.774771C27.5715 0.817943 27.6634 0.881153 27.7402 0.960633C27.817 1.04011 27.8769 1.13423 27.9165 1.23739C27.9561 1.34054 27.9745 1.45061 27.9707 1.56103V8.13803C27.9712 8.24636 27.9504 8.35373 27.9093 8.45398C27.8682 8.55423 27.8078 8.64538 27.7314 8.72222C27.655 8.79905 27.5643 8.86005 27.4643 8.90172C27.3643 8.94339 27.257 8.9649 27.1487 8.96503Z" fill="#204F38"/>
</svg>
