<svg width="26" height="26" viewBox="0 0 26 26" fill="none" xmlns="http://www.w3.org/2000/svg">
<path fill-rule="evenodd" clip-rule="evenodd" d="M3 13C3.00018 11.0756 3.55564 9.19206 4.59974 7.57548C5.64383 5.9589 7.1322 4.67793 8.88626 3.88627C10.6403 3.0946 12.5856 2.82588 14.4885 3.11234C16.3915 3.3988 18.1715 4.22828 19.6147 5.50124C21.058 6.7742 22.1033 8.43657 22.6252 10.2889C23.1471 12.1412 23.1235 14.1048 22.5571 15.944C21.9908 17.7832 20.9057 19.4199 19.4322 20.6577C17.9587 21.8956 16.1593 22.6819 14.25 22.9225V15.5H16.75C17.0815 15.5 17.3995 15.3683 17.6339 15.1339C17.8683 14.8995 18 14.5815 18 14.25C18 13.9185 17.8683 13.6005 17.6339 13.3661C17.3995 13.1317 17.0815 13 16.75 13H14.25V10.5C14.25 10.1685 14.3817 9.85054 14.6161 9.61612C14.8505 9.3817 15.1685 9.25 15.5 9.25H16.125C16.4565 9.25 16.7745 9.1183 17.0089 8.88388C17.2433 8.64946 17.375 8.33152 17.375 8C17.375 7.66848 17.2433 7.35054 17.0089 7.11612C16.7745 6.8817 16.4565 6.75 16.125 6.75H15.5C14.5054 6.75 13.5516 7.14509 12.8483 7.84835C12.1451 8.55161 11.75 9.50544 11.75 10.5V13H9.25C8.91848 13 8.60054 13.1317 8.36612 13.3661C8.1317 13.6005 8 13.9185 8 14.25C8 14.5815 8.1317 14.8995 8.36612 15.1339C8.60054 15.3683 8.91848 15.5 9.25 15.5H11.75V22.9225C9.33337 22.6178 7.11102 21.4416 5.5 19.6147C3.88898 17.7878 3.00004 15.4358 3 13ZM13 25.5C19.9037 25.5 25.5 19.9037 25.5 13C25.5 6.09625 19.9037 0.5 13 0.5C6.09625 0.5 0.5 6.09625 0.5 13C0.5 19.9037 6.09625 25.5 13 25.5Z" fill="#4285F4"/>
</svg>
