<svg width="26" height="26" viewBox="0 0 26 26" fill="none" xmlns="http://www.w3.org/2000/svg">
<path d="M17.6515 17.5826L18.236 16.9704L16.8785 15.5325L16.2965 16.1447L17.6515 17.5826ZM20.1961 16.7136L22.6459 18.1177L23.5625 16.3366L21.114 14.9339L20.1961 16.7136ZM23.1164 20.907L21.296 22.8165L22.651 24.253L24.4714 22.3449L23.1164 20.907ZM20.1859 23.43C18.3271 23.6138 13.5198 23.4503 8.31261 17.9934L6.95633 19.4299C12.6378 25.3855 18.0463 25.6774 20.3653 25.449L20.1859 23.43ZM8.31261 17.9934C3.35026 12.7906 2.52726 8.41613 2.42471 6.51743L0.504373 6.6323C0.632566 9.02155 1.6517 13.8703 6.95633 19.4299L8.31261 17.9934ZM10.0753 9.64184L10.4432 9.25534L9.08947 7.81882L8.72155 8.20396L10.0753 9.64184ZM10.7355 4.34305L9.12023 2.06732L7.58063 3.28357L9.19587 5.55795L10.7355 4.34305ZM3.68356 1.57136L1.67093 3.67952L3.02721 5.1174L5.03856 3.00923L3.68356 1.57136ZM9.39841 8.9229C8.71899 8.20396 8.71899 8.20396 8.71899 8.20667H8.71642L8.71258 8.21207C8.65205 8.27719 8.59754 8.34824 8.54977 8.42424C8.48055 8.53235 8.40491 8.67425 8.34082 8.85398C8.18472 9.31793 8.14584 9.81673 8.22801 10.3013C8.39979 11.4703 9.16382 13.0149 11.12 15.0663L12.4763 13.6284C10.6444 11.7095 10.2086 10.5419 10.1278 9.9905C10.0894 9.72833 10.1291 9.59859 10.1406 9.56886C10.1471 9.54994 10.1496 9.54859 10.1406 9.56076C10.1293 9.5795 10.1165 9.59713 10.1022 9.61346L10.0894 9.62697C10.0852 9.63118 10.081 9.63523 10.0766 9.63914L9.39841 8.9229ZM11.12 15.0663C13.0776 17.1177 14.5505 17.9177 15.6606 18.0961C16.2285 18.188 16.6862 18.115 17.0336 17.9785C17.2279 17.9028 17.4096 17.7951 17.572 17.6596C17.5941 17.6402 17.6154 17.6199 17.6361 17.5988L17.6451 17.5907L17.6489 17.5866L17.6502 17.5839C17.6502 17.5839 17.6515 17.5826 16.9733 16.8636C16.2939 16.1447 16.2978 16.1434 16.2978 16.1434L16.3003 16.1407L16.3029 16.138L16.3106 16.1312L16.3234 16.1177C16.3388 16.1031 16.3551 16.0896 16.3721 16.0771C16.3849 16.0677 16.3811 16.0717 16.3631 16.0798C16.3311 16.092 16.2055 16.1339 15.9529 16.0934C15.4222 16.0069 14.3069 15.5474 12.4763 13.6284L11.12 15.0663ZM9.12023 2.06597C7.81266 0.22808 5.24367 -0.0638194 3.68356 1.57136L5.03856 3.00923C5.72055 2.29435 6.93069 2.36868 7.58063 3.28357L9.12023 2.06597ZM2.42599 6.51878C2.40035 6.0512 2.60418 5.562 3.02721 5.11875L1.66965 3.68087C0.981252 4.40251 0.438995 5.42416 0.504373 6.6323L2.42599 6.51878ZM21.296 22.8165C20.9448 23.1868 20.5653 23.3949 20.1871 23.4314L20.3653 25.449C21.3075 25.3558 22.078 24.8557 22.6523 24.2544L21.296 22.8165ZM10.4432 9.25534C11.7059 7.93233 11.7995 5.84174 10.7367 4.3444L9.19715 5.5593C9.71377 6.2877 9.63685 7.24313 9.08818 7.82017L10.4432 9.25534ZM22.6472 18.1191C23.6945 18.7191 23.8573 20.1327 23.1176 20.9083L24.4739 22.3449C26.1917 20.5435 25.6623 17.5393 23.5637 16.338L22.6472 18.1191ZM18.236 16.9718C18.7283 16.4555 19.5205 16.3285 20.1974 16.715L21.1153 14.9352C19.7256 14.1379 18.0027 14.3582 16.8798 15.5339L18.236 16.9718Z" fill="#29A814"/>
</svg>
