<svg width="18" height="22" viewBox="0 0 18 22" fill="none" xmlns="http://www.w3.org/2000/svg">
<path d="M1.38884 18.988C1.39069 19.6079 1.66043 20.202 2.13916 20.6404C2.61789 21.0789 3.26669 21.3261 3.94384 21.328H14.1668C14.8442 21.3263 15.4932 21.0793 15.9722 20.6408C16.4511 20.2023 16.721 19.6081 16.7228 18.988V4.95028H1.38884V18.988ZM4.53184 10.6567L6.33184 9.00879L9.05384 11.4889L11.7628 9.00879L13.5628 10.6567L10.8538 13.1369L13.5628 15.617L11.7628 17.265L9.05384 14.7848L6.34484 17.265L4.54484 15.617L7.25384 13.1369L4.53184 10.6567ZM13.5318 1.43835L12.2498 0.271057H5.86084L4.58284 1.44109H0.11084V3.78025H17.9998V1.44109L13.5318 1.43835Z" fill="black"/>
</svg>
