<svg width="28" height="24" viewBox="0 0 28 24" fill="none" xmlns="http://www.w3.org/2000/svg">
<path d="M20.3812 0.593162C19.1958 0.601807 18.0262 0.842831 16.951 1.30001C15.8759 1.75719 14.9202 2.41992 14.1482 3.24359C13.3763 2.41992 12.4206 1.75719 11.3455 1.30001C10.2703 0.842831 9.10066 0.601807 7.91524 0.593162C6.91208 0.584109 5.91702 0.758325 4.9883 1.10562C4.05957 1.45291 3.21584 1.9663 2.50646 2.61575C1.79709 3.2652 1.23632 4.03766 0.856983 4.88792C0.477645 5.73819 0.287352 6.64918 0.297242 7.5676C0.297242 12.3613 5.00624 16.265 12.1402 22.2013L14.1482 23.8629L16.1562 22.1894C23.2902 16.2669 27.9972 12.3613 27.9972 7.5676C28.0071 6.64934 27.8169 5.7385 27.4377 4.88835C27.0585 4.03821 26.4979 3.26583 25.7887 2.61641C25.0796 1.96698 24.2361 1.45355 23.3076 1.10615C22.3791 0.758751 21.3842 0.584354 20.3812 0.593162ZM14.2872 20.3126L14.1482 20.4398L14.0092 20.3126C7.41724 14.8469 3.06724 11.2324 3.06724 7.5676C3.05161 6.98083 3.16633 6.39726 3.40443 5.8523C3.64253 5.30733 3.99906 4.81232 4.45239 4.39729C4.90572 3.98225 5.44641 3.65585 6.04166 3.43786C6.63691 3.21987 7.27433 3.11485 7.91524 3.12915C8.96805 3.1339 9.99652 3.41952 10.8748 3.95106C11.753 4.48261 12.443 5.23703 12.8602 6.12199H15.4502C15.8629 5.23664 16.5498 4.48137 17.4262 3.94948C18.3025 3.4176 19.3298 3.13241 20.3812 3.12915C21.0222 3.11485 21.6596 3.21987 22.2548 3.43786C22.8501 3.65585 23.3908 3.98225 23.8441 4.39729C24.2974 4.81232 24.654 5.30733 24.8921 5.8523C25.1302 6.39726 25.2449 6.98083 25.2292 7.5676C25.2292 11.2324 20.8802 14.8469 14.2872 20.3126Z" fill="black"/>
</svg>
