<svg width="22" height="22" viewBox="0 0 22 22" fill="none" xmlns="http://www.w3.org/2000/svg">
<path d="M9.74267 6.67399C9.73629 6.46205 9.79339 6.25304 9.90663 6.07377C10.0199 5.8945 10.1841 5.75316 10.3782 5.66787C10.5723 5.58258 10.7875 5.55724 10.9962 5.5951C11.2048 5.63296 11.3973 5.73229 11.5491 5.88034C11.7009 6.0284 11.805 6.21843 11.848 6.42605C11.8911 6.63367 11.8711 6.84942 11.7907 7.04561C11.7102 7.2418 11.573 7.40948 11.3966 7.52715C11.2202 7.64481 11.0127 7.70709 10.8007 7.70599C10.663 7.70918 10.5262 7.68487 10.3981 7.63446C10.27 7.58406 10.1532 7.50858 10.0547 7.41245C9.95613 7.31633 9.87777 7.2015 9.82419 7.07469C9.77061 6.94788 9.7429 6.81165 9.74267 6.67399ZM9.81467 8.51699H11.7907V15.956H9.81467V8.51699Z" fill="#204F38"/>
<path d="M10.8054 1.70696C12.954 1.70784 15.0359 2.45363 16.6963 3.81727C18.3568 5.18092 19.4931 7.07807 19.9117 9.18554C20.3303 11.293 20.0052 13.4804 18.9919 15.3751C17.9787 17.2698 16.3398 18.7546 14.3546 19.5765C12.3694 20.3984 10.1607 20.5067 8.10462 19.8828C6.04857 19.2589 4.27243 17.9414 3.07877 16.1548C1.88511 14.3683 1.34779 12.2231 1.55832 10.0849C1.76886 7.94657 2.71424 5.94741 4.23341 4.42796C5.09447 3.56232 6.1187 2.8761 7.2468 2.40903C8.3749 1.94197 9.58445 1.70334 10.8054 1.70696ZM10.8054 0.261963C8.68159 0.261765 6.60541 0.89137 4.83943 2.07116C3.07344 3.25094 1.69697 4.92792 0.88408 6.89002C0.0711926 8.85211 -0.141598 11.0112 0.272617 13.0942C0.686832 15.1773 1.70945 17.0907 3.21115 18.5925C4.71284 20.0944 6.62617 21.1172 8.70916 21.5316C10.7922 21.946 12.9513 21.7334 14.9134 20.9207C16.8756 20.108 18.5527 18.7317 19.7327 16.9658C20.9126 15.1999 21.5424 13.1238 21.5424 11C21.5427 9.58984 21.2651 8.19348 20.7257 6.89063C20.1862 5.58778 19.3953 4.40397 18.3983 3.40682C17.4012 2.40966 16.2175 1.6187 14.9147 1.0791C13.6119 0.539496 12.2155 0.261832 10.8054 0.261963Z" fill="#204F38"/>
</svg>
