<svg width="24" height="23" viewBox="0 0 24 23" fill="none" xmlns="http://www.w3.org/2000/svg">
<path d="M5.47493 20.4111C5.381 20.4103 5.29022 20.3771 5.21793 20.3171C3.03567 18.5469 1.58154 16.0352 1.133 13.2613C0.684452 10.4873 1.27289 7.64534 2.78603 5.27758C4.29918 2.90981 6.6311 1.18202 9.33686 0.423875C12.0426 -0.334271 14.9328 -0.069698 17.4559 1.16711C17.5507 1.21684 17.6222 1.30162 17.6553 1.40337C17.6884 1.50512 17.6804 1.61577 17.633 1.71171C17.5856 1.80764 17.5026 1.88125 17.4017 1.91683C17.3008 1.9524 17.19 1.94712 17.0929 1.90211C14.7504 0.751278 12.066 0.503973 9.55259 1.20746C7.03924 1.91095 4.87323 3.5159 3.46851 5.71559C2.06379 7.91527 1.51888 10.5554 1.93789 13.1315C2.35691 15.7076 3.71048 18.039 5.73993 19.6801C5.80489 19.7347 5.85151 19.8079 5.8735 19.8898C5.89549 19.9717 5.89178 20.0585 5.86286 20.1382C5.83395 20.218 5.78124 20.2869 5.71185 20.3357C5.64247 20.3845 5.55976 20.4109 5.47493 20.4111ZM12.4149 22.8601C10.5912 22.8648 8.79323 22.4292 7.17393 21.5901C7.07752 21.5403 7.00487 21.4541 6.97196 21.3507C6.93905 21.2473 6.94857 21.135 6.99843 21.0386C7.04829 20.9422 7.13441 20.8696 7.23783 20.8366C7.34126 20.8037 7.45353 20.8133 7.54993 20.8631C9.8847 22.0669 12.5829 22.3622 15.1228 21.6918C17.6627 21.0214 19.8637 19.433 21.3002 17.2338C22.7368 15.0345 23.3068 12.3807 22.9 9.78557C22.4932 7.19042 21.1385 4.8383 19.0979 3.18411C19.054 3.15116 19.0172 3.1097 18.9897 3.06219C18.9622 3.01468 18.9446 2.96212 18.9379 2.90764C18.9312 2.85316 18.9355 2.79789 18.9507 2.74513C18.9659 2.69237 18.9915 2.64322 19.0261 2.60061C19.0607 2.55799 19.1035 2.5228 19.1521 2.49714C19.2006 2.47147 19.2538 2.45586 19.3085 2.45124C19.3632 2.44662 19.4183 2.45308 19.4704 2.47024C19.5225 2.48741 19.5707 2.51491 19.6119 2.55111C21.4465 4.03904 22.775 6.05874 23.4149 8.3325C24.0548 10.6063 23.9746 13.0224 23.1853 15.2487C22.396 17.475 20.9364 19.4022 19.0072 20.7652C17.0781 22.1281 14.774 22.86 12.4119 22.8601H12.4149Z" fill="#204F38"/>
<path d="M12.0084 22.4521C11.9071 22.452 11.8094 22.4142 11.7344 22.3461C10.2013 20.9711 9.03313 19.2373 8.3344 17.3001C7.55872 15.4384 7.14272 13.4466 7.1084 11.4301C7.11303 9.40918 7.52986 7.41043 8.3334 5.55611C9.09967 3.6554 10.2582 1.93768 11.7334 0.515108C11.8146 0.45477 11.9153 0.426741 12.016 0.436458C12.1167 0.446175 12.2101 0.492947 12.2783 0.567696C12.3464 0.642446 12.3844 0.739844 12.3848 0.840994C12.3852 0.942145 12.348 1.03983 12.2804 1.11511C10.8861 2.45706 9.79002 4.07754 9.0634 5.87111C8.31133 7.62684 7.92383 9.51708 7.9244 11.4271C7.9505 13.336 8.33835 15.2227 9.0674 16.9871C9.72749 18.8132 10.8317 20.4463 12.2804 21.7391C12.3413 21.7945 12.3841 21.867 12.4031 21.9471C12.4221 22.0272 12.4163 22.1112 12.3867 22.188C12.3571 22.2648 12.3049 22.3309 12.237 22.3775C12.1691 22.4241 12.0887 22.449 12.0064 22.4491L12.0084 22.4521Z" fill="#204F38"/>
<path d="M12.8234 22.4521C12.7411 22.452 12.6607 22.4271 12.5928 22.3805C12.5249 22.3339 12.4727 22.2678 12.4431 22.191C12.4134 22.1142 12.4077 22.0302 12.4267 21.9501C12.4457 21.87 12.4884 21.7975 12.5494 21.7421C13.9981 20.4493 15.1023 18.8162 15.7624 16.9901C16.4912 15.2263 16.879 13.3404 16.9054 11.4321C16.906 9.52208 16.5185 7.63184 15.7664 5.87611C15.0397 4.08256 13.9436 2.46208 12.5494 1.12011C12.5036 1.0861 12.4655 1.04287 12.4375 0.993219C12.4094 0.943567 12.3921 0.888592 12.3867 0.831839C12.3812 0.775085 12.3877 0.717813 12.4057 0.663717C12.4237 0.609622 12.4528 0.559903 12.4913 0.517768C12.5297 0.475633 12.5765 0.442017 12.6287 0.419088C12.6809 0.396159 12.7373 0.384426 12.7943 0.384647C12.8514 0.384867 12.9077 0.397036 12.9597 0.420367C13.0117 0.443699 13.0583 0.477676 13.0964 0.520107C14.5791 1.94066 15.7449 3.65852 16.5174 5.56111C17.3137 7.41595 17.7237 9.41357 17.7224 11.4321C17.6884 13.4486 17.2727 15.4404 16.4974 17.3021C15.7938 19.2411 14.6197 20.975 13.0804 22.3481C13.0095 22.4117 12.9186 22.4485 12.8234 22.4521Z" fill="#204F38"/>
<path d="M23.4364 11.8381H1.39237C1.28417 11.8381 1.18039 11.7951 1.10388 11.7186C1.02736 11.6421 0.984375 11.5383 0.984375 11.4301C0.984375 11.3219 1.02736 11.2181 1.10388 11.1416C1.18039 11.0651 1.28417 11.0221 1.39237 11.0221H23.4364C23.5446 11.0221 23.6484 11.0651 23.7249 11.1416C23.8014 11.2181 23.8444 11.3219 23.8444 11.4301C23.8444 11.5383 23.8014 11.6421 23.7249 11.7186C23.6484 11.7951 23.5446 11.8381 23.4364 11.8381ZM21.8034 6.12313H3.02538C2.91717 6.12313 2.81339 6.08014 2.73688 6.00363C2.66036 5.92711 2.61738 5.82334 2.61738 5.71513C2.61738 5.60692 2.66036 5.50314 2.73688 5.42663C2.81339 5.35012 2.91717 5.30713 3.02538 5.30713H21.8034C21.9116 5.30713 22.0154 5.35012 22.0919 5.42663C22.1684 5.50314 22.2114 5.60692 22.2114 5.71513C22.2114 5.82334 22.1684 5.92711 22.0919 6.00363C22.0154 6.08014 21.9116 6.12313 21.8034 6.12313ZM21.8034 17.5531H3.02538C2.91717 17.5531 2.81339 17.5101 2.73688 17.4336C2.66036 17.3571 2.61738 17.2533 2.61738 17.1451C2.61738 17.0369 2.66036 16.9331 2.73688 16.8566C2.81339 16.7801 2.91717 16.7371 3.02538 16.7371H21.8034C21.9116 16.7371 22.0154 16.7801 22.0919 16.8566C22.1684 16.9331 22.2114 17.0369 22.2114 17.1451C22.2114 17.2533 22.1684 17.3571 22.0919 17.4336C22.0154 17.5101 21.9116 17.5531 21.8034 17.5531Z" fill="#204F38"/>
<path d="M12.4148 22.4521C12.3612 22.4521 12.308 22.4416 12.2585 22.421C12.2089 22.4004 12.1639 22.3703 12.126 22.3323C12.0881 22.2943 12.0581 22.2492 12.0376 22.1996C12.0172 22.15 12.0067 22.0968 12.0068 22.0431V0.816142C12.0068 0.707934 12.0498 0.604157 12.1263 0.527642C12.2029 0.451127 12.3066 0.408142 12.4148 0.408142C12.523 0.408142 12.6268 0.451127 12.7033 0.527642C12.7799 0.604157 12.8228 0.707934 12.8228 0.816142V22.0431C12.823 22.0968 12.8125 22.15 12.7921 22.1996C12.7716 22.2492 12.7416 22.2943 12.7037 22.3323C12.6658 22.3703 12.6208 22.4004 12.5712 22.421C12.5216 22.4416 12.4685 22.4521 12.4148 22.4521Z" fill="#204F38"/>
</svg>
