<svg width="24" height="20" viewBox="0 0 24 20" fill="none" xmlns="http://www.w3.org/2000/svg">
<path d="M3.50556 16.405L4.27056 15.524C4.42284 15.3544 4.50255 15.1318 4.49256 14.904V14.759C4.50203 14.6911 4.49563 14.622 4.47386 14.557C4.45208 14.492 4.41552 14.433 4.36706 14.3845C4.3186 14.3361 4.25955 14.2995 4.19457 14.2777C4.12958 14.2559 4.06043 14.2495 3.99256 14.259H1.50556C1.41273 14.259 1.32371 14.2959 1.25807 14.3615C1.19243 14.4272 1.15556 14.5162 1.15556 14.609V15.309C1.15556 15.355 1.16461 15.4005 1.1822 15.443C1.19979 15.4854 1.22557 15.524 1.25807 15.5565C1.29057 15.589 1.32915 15.6148 1.37162 15.6324C1.41408 15.65 1.45959 15.659 1.50556 15.659H2.50556C2.33593 15.8298 2.17537 16.0094 2.02456 16.197L1.77956 16.503C1.69533 16.5862 1.63851 16.6931 1.61671 16.8094C1.5949 16.9258 1.60916 17.046 1.65756 17.154L1.70356 17.238C1.74366 17.3457 1.81755 17.4375 1.91416 17.4997C2.01078 17.5619 2.12494 17.5911 2.23956 17.583H2.44656C2.89856 17.583 3.14656 17.69 3.14656 17.983C3.14656 18.189 2.96256 18.342 2.51856 18.342C2.28661 18.3403 2.05714 18.2941 1.84256 18.206C1.55856 18.036 1.32956 18.053 1.16056 18.342L0.905556 18.75C0.862793 18.8018 0.831613 18.8622 0.814111 18.9271C0.796609 18.992 0.793189 19.0598 0.804082 19.1261C0.814974 19.1924 0.839927 19.2556 0.877264 19.3115C0.914602 19.3674 0.963459 19.4146 1.02056 19.45C1.51273 19.7312 2.07183 19.8739 2.63856 19.863C2.90794 19.892 3.18042 19.8636 3.438 19.7795C3.69558 19.6955 3.9324 19.5578 4.13285 19.3755C4.33329 19.1932 4.49279 18.9705 4.60082 18.722C4.70885 18.4735 4.76295 18.2049 4.75956 17.934C4.7555 17.5746 4.62907 17.2272 4.40111 16.9493C4.17315 16.6713 3.85727 16.4793 3.50556 16.405ZM22.4936 8.66502H8.50556C8.3199 8.66502 8.14186 8.73877 8.01058 8.87004C7.87931 9.00132 7.80556 9.17937 7.80556 9.36502V10.765C7.80556 10.9507 7.87931 11.1287 8.01058 11.26C8.14186 11.3913 8.3199 11.465 8.50556 11.465H22.4946C22.6802 11.465 22.8583 11.3913 22.9895 11.26C23.1208 11.1287 23.1946 10.9507 23.1946 10.765V9.36502C23.1943 9.17954 23.1204 9.00175 22.9892 8.87069C22.8579 8.73963 22.68 8.66602 22.4946 8.66602L22.4936 8.66502ZM22.4936 1.66502H8.50556C8.3199 1.66502 8.14186 1.73877 8.01058 1.87004C7.87931 2.00132 7.80556 2.17937 7.80556 2.36502V3.76502C7.80556 3.95067 7.87931 4.12872 8.01058 4.25999C8.14186 4.39127 8.3199 4.46502 8.50556 4.46502H22.4946C22.6802 4.46502 22.8583 4.39127 22.9895 4.25999C23.1208 4.12872 23.1946 3.95067 23.1946 3.76502V2.36502C23.1935 2.18006 23.1193 2.00304 22.9881 1.87263C22.857 1.74222 22.6795 1.66902 22.4946 1.66902L22.4936 1.66502ZM22.4936 15.658H8.50556C8.3199 15.658 8.14186 15.7318 8.01058 15.863C7.87931 15.9943 7.80556 16.1724 7.80556 16.358V17.758C7.80556 17.9437 7.87931 18.1217 8.01058 18.253C8.14186 18.3843 8.3199 18.458 8.50556 18.458H22.4946C22.6802 18.458 22.8583 18.3843 22.9895 18.253C23.1208 18.1217 23.1946 17.9437 23.1946 17.758V16.358C23.1935 16.1731 23.1193 15.996 22.9881 15.8656C22.857 15.7352 22.6795 15.662 22.4946 15.662L22.4936 15.658ZM1.50556 5.86702H4.30556C4.39838 5.86702 4.48741 5.83014 4.55304 5.76451C4.61868 5.69887 4.65556 5.60985 4.65556 5.51702V4.82002C4.65556 4.72719 4.61868 4.63817 4.55304 4.57253C4.48741 4.50689 4.39838 4.47002 4.30556 4.47002H3.60556V0.620019C3.60556 0.574057 3.5965 0.528544 3.57891 0.48608C3.56132 0.443616 3.53554 0.405033 3.50304 0.372532C3.47054 0.340032 3.43196 0.314251 3.3895 0.296662C3.34703 0.279072 3.30152 0.27002 3.25556 0.27002H2.20556C2.14079 0.27017 2.07733 0.28829 2.02224 0.322365C1.96716 0.356439 1.92261 0.405131 1.89356 0.46302L1.54356 1.16302C1.51704 1.21628 1.50453 1.27543 1.50722 1.33486C1.50992 1.3943 1.52772 1.45207 1.55895 1.50272C1.59018 1.55336 1.6338 1.59521 1.6857 1.62431C1.7376 1.65341 1.79606 1.6688 1.85556 1.66902H2.20556V4.46902H1.50556C1.41273 4.46902 1.32371 4.50589 1.25807 4.57153C1.19243 4.63717 1.15556 4.72619 1.15556 4.81902V5.51902C1.15556 5.61185 1.19243 5.70087 1.25807 5.76651C1.32371 5.83214 1.41273 5.86902 1.50556 5.86902V5.86702ZM1.33456 12.867H4.30556C4.39838 12.867 4.48741 12.8301 4.55304 12.7645C4.61868 12.6989 4.65556 12.6098 4.65556 12.517V11.817C4.65556 11.7242 4.61868 11.6352 4.55304 11.5695C4.48741 11.5039 4.39838 11.467 4.30556 11.467H2.61256C2.75656 11.017 4.72656 10.65 4.72656 8.99902C4.72208 8.75452 4.66702 8.5136 4.56484 8.29143C4.46266 8.06926 4.31558 7.87066 4.13286 7.70814C3.95014 7.54561 3.73575 7.42269 3.50318 7.34712C3.27061 7.27154 3.02491 7.24495 2.78156 7.26902C2.44259 7.25417 2.10502 7.32089 1.79719 7.46358C1.48937 7.60627 1.22028 7.82076 1.01256 8.08902C0.968496 8.13805 0.936242 8.19652 0.918264 8.25994C0.900286 8.32337 0.897062 8.39006 0.908837 8.45492C0.920612 8.51978 0.947076 8.58109 0.9862 8.63415C1.02532 8.6872 1.07607 8.7306 1.13456 8.76102L1.50956 9.06102C1.75456 9.26102 1.99056 9.16902 2.20956 8.95402C2.32008 8.84573 2.46883 8.78537 2.62356 8.78602C2.67609 8.78133 2.72903 8.78783 2.77887 8.8051C2.82871 8.82238 2.87432 8.85002 2.91269 8.88622C2.95106 8.92241 2.98131 8.96633 3.00146 9.01508C3.0216 9.06383 3.03118 9.1163 3.02956 9.16902C3.03556 9.72002 0.805556 10.12 0.805556 12.19V12.365C0.802435 12.4339 0.814238 12.5027 0.840158 12.5667C0.866078 12.6306 0.905503 12.6882 0.955735 12.7355C1.00597 12.7827 1.06582 12.8186 1.1312 12.8406C1.19659 12.8627 1.26595 12.8703 1.33456 12.863V12.867Z" fill="#204F38"/>
</svg>
