<svg width="10" height="13" viewBox="0 0 10 13" fill="none" xmlns="http://www.w3.org/2000/svg">
<path d="M5.00018 6.06225C5.2592 6.07137 5.51528 6.00941 5.73554 5.8843C5.95579 5.75919 6.13017 5.57666 6.23628 5.36014C6.34238 5.14363 6.37537 4.90302 6.331 4.66922C6.28663 4.43541 6.16692 4.21909 5.98727 4.04803C5.80761 3.87697 5.5762 3.75899 5.32276 3.70923C5.06931 3.65947 4.80541 3.68022 4.56494 3.76879C4.32447 3.85737 4.11841 4.00974 3.97323 4.20633C3.82805 4.40293 3.75038 4.63476 3.75018 4.87207C3.74376 5.1816 3.87179 5.48081 4.10617 5.70397C4.34055 5.92713 4.6621 6.05599 5.00018 6.06225ZM4.55618 10.1821C4.61306 10.2378 4.68182 10.2821 4.75819 10.3125C4.83457 10.3428 4.91693 10.3585 5.00018 10.3585C5.08344 10.3585 5.1658 10.3428 5.24218 10.3125C5.31855 10.2821 5.38731 10.2378 5.44418 10.1821L8.00018 7.73582C8.7987 6.96299 9.24365 5.93955 9.24365 4.87573C9.24365 3.81191 8.7987 2.78848 8.00018 2.01565C7.61444 1.64182 7.1494 1.34402 6.63355 1.14048C6.1177 0.936952 5.5619 0.83197 5.00018 0.83197C4.43847 0.83197 3.88266 0.936952 3.36681 1.14048C2.85096 1.34402 2.38593 1.64182 2.00018 2.01565C1.20167 2.78848 0.75672 3.81191 0.75672 4.87573C0.75672 5.93955 1.20167 6.96299 2.00018 7.73582L4.55618 10.1821ZM2.01918 4.59741C2.05878 4.17728 2.19848 3.77019 2.42843 3.40481C2.65839 3.03943 2.97302 2.72463 3.35018 2.48256C3.83545 2.17643 4.41087 2.01251 5.00018 2.01251C5.5895 2.01251 6.16491 2.17643 6.65018 2.48256C7.02547 2.72411 7.33876 3.03761 7.56827 3.40126C7.79779 3.7649 7.93801 4.16996 7.97918 4.58826C8.02518 5.00764 7.97219 5.43117 7.82381 5.83016C7.67544 6.22916 7.43513 6.5943 7.11918 6.90086L5.00018 8.91501L2.88118 6.89629C2.56479 6.59273 2.32385 6.23012 2.17488 5.83332C2.02592 5.43651 1.97347 5.01491 2.01918 4.59741ZM9.37519 11.5426H0.625185C0.459028 11.551 0.302711 11.6174 0.188347 11.728C0.0739822 11.8387 0.0102539 11.9853 0.0102539 12.1376C0.0102539 12.29 0.0739822 12.4366 0.188347 12.5472C0.302711 12.6579 0.459028 12.7243 0.625185 12.7327H9.37519C9.54134 12.7243 9.69766 12.6579 9.81202 12.5472C9.92639 12.4366 9.99011 12.29 9.99011 12.1376C9.99011 11.9853 9.92639 11.8387 9.81202 11.728C9.69766 11.6174 9.54134 11.551 9.37519 11.5426Z" fill="#204F38"/>
</svg>
