<svg width="136" height="122" viewBox="0 0 136 122" fill="none" xmlns="http://www.w3.org/2000/svg">
<path opacity="0.15" d="M74.9531 111.715C108.642 111.715 135.953 86.7116 135.953 55.8683C135.953 25.025 108.642 0.0215454 74.9531 0.0215454C41.2638 0.0215454 13.9531 25.025 13.9531 55.8683C13.9531 86.7116 41.2638 111.715 74.9531 111.715Z" fill="#FF4A4A"/>
<path d="M45.4186 34.7576C44.4426 34.5067 44.4457 35.2684 43.9457 35.2968C43.1587 35.3435 43.1166 36.0292 43.8886 36.0091L43.3977 36.433C43.0643 36.967 42.8866 37.0424 42.8646 36.6591C43.0376 36.6454 42.4346 37.3 42.5386 37.2029C42.2246 36.9759 41.9156 36.9914 41.9226 37.4016C41.9326 38.2118 40.1076 38.0672 40.7366 38.6284C40.8036 38.4966 40.9287 38.4599 41.1177 38.5158C40.6177 38.9854 40.6786 39.0065 40.0716 38.9662C39.5356 38.9323 39.9136 39.2848 39.6076 39.4377C39.2456 39.6162 39.4186 40.0291 39.0406 40.345C38.4266 40.8595 38.7926 40.5455 38.0956 41.0847C38.0939 40.9919 38.1074 40.8993 38.1356 40.8101C37.9406 40.9694 37.6716 40.7927 37.8176 41.1763C37.1856 40.822 37.0576 41.1708 37.2896 41.6935C37.1076 41.8336 36.9277 41.9682 36.7427 42.1046C36.6427 42.1751 35.6426 42.4406 35.6056 42.4983C35.7346 42.2712 36.2366 42.0579 35.7766 41.8418C35.4766 41.6963 35.3626 42.2154 35.3366 42.3701C35.2656 42.7885 35.5366 42.8901 34.9706 43.043C34.6627 43.1202 34.3405 43.1379 34.0246 43.0952C34.0426 43.1318 33.7736 42.4333 33.6126 42.5029C33.6946 42.6786 33.7676 42.8572 33.8386 43.0366C33.7496 42.9277 33.7097 42.9304 33.7127 43.0458C33.6697 42.8718 33.6276 42.696 33.5846 42.523C33.3706 42.827 33.5226 43.5054 33.5536 43.8459C33.5567 43.7702 33.5302 43.6959 33.4789 43.6363C33.4276 43.5768 33.3548 43.5359 33.2736 43.5209C33.1276 43.5887 33.0967 43.8761 33.0447 43.9979C32.9157 44.3028 32.2206 43.9192 31.9596 44.181C32.0426 43.6006 31.6596 44.0895 31.4966 44.2286C31.2567 44.4966 30.9125 44.6689 30.5366 44.7093C30.5116 44.5976 30.3437 43.6601 29.9627 43.8148C29.5417 43.9906 29.5786 44.6241 29.5686 43.7233C29.4566 43.9137 29.0906 44.6525 28.6926 44.5033C28.7649 44.3117 28.8139 44.1133 28.8386 43.9119C28.8386 43.9119 28.5176 44.3614 28.4726 44.4456C27.5026 44.2057 28.1366 44.8622 27.5456 45.2101C27.5546 45.1597 27.6826 44.5756 27.6056 44.5518C27.5286 44.528 27.2796 45.3758 27.3136 45.2668C27.3386 45.1002 27.3586 44.9345 27.3736 44.7669C27.4536 45.3694 27.1166 45.7649 27.2736 46.4057C27.1186 46.2373 26.3196 46.9679 27.3826 46.9065C27.3486 46.9578 27.0626 47.5346 27.3666 47.5593C27.7046 47.5895 27.6666 46.7857 27.5336 46.9523C27.6246 46.8021 29.4956 47.9997 30.1026 47.8156C31.5879 47.9077 33.079 47.7507 34.5026 47.3524C37.2845 46.6095 39.8686 45.3481 42.0926 43.6473C44.3536 41.9993 47.1506 39.9467 48.7546 37.7239C50.1376 35.8049 47.4616 33.5555 45.4186 34.7576ZM30.2756 44.4621C30.2886 44.5536 30.3006 44.6351 30.3126 44.7221C30.1566 44.7368 30.0896 44.4236 30.2756 44.4621ZM28.6526 44.4923L28.5526 44.4639C28.6006 44.3788 28.8786 43.7937 28.6526 44.495V44.4923ZM29.7926 44.593C29.8176 44.7303 29.7626 44.7853 29.6316 44.7523C29.6466 44.7221 29.7776 44.2836 29.7926 44.5958V44.593Z" fill="#FF4A4A"/>
<path d="M94.1885 44.3082C94.1175 44.104 94.0415 43.9035 93.9665 43.7003C94.1615 43.8294 94.6156 42.9679 93.7446 43.2425C93.7446 43.2425 93.8695 42.555 93.6315 42.6062C93.3535 42.6648 93.5395 43.4101 93.6135 43.2343C93.3905 44.0582 92.5665 43.4174 92.2845 43.0082C91.3845 41.6678 90.4845 43.6389 89.3845 42.8763C89.4459 42.8349 89.4937 42.7788 89.5228 42.7143C89.5519 42.6497 89.5612 42.5791 89.5495 42.5101C89.0634 42.5582 88.5742 42.5747 88.0856 42.5595C88.2424 42.3989 88.3524 42.2046 88.4055 41.9947C88.3605 42.1595 87.6985 41.677 87.5475 41.8528C87.0745 42.4067 88.3345 41.8976 87.3475 42.5403C87.2215 42.5147 87.2345 42.4543 87.3875 42.3636C86.7875 42.1732 86.9205 41.9535 86.5425 41.5177C86.1175 41.0242 85.3475 41.2961 84.7835 41.3227C85.13 41.2682 85.4857 41.2896 85.8215 41.3849C84.8215 41.6596 84.0215 41.092 83.1795 40.6727C82.8165 40.4896 82.7585 39.921 82.4795 39.9915C82.5522 39.9651 82.6107 39.9138 82.6427 39.8485C82.6746 39.7831 82.6774 39.709 82.6505 39.6418C82.5155 39.5997 82.3505 39.7233 82.2295 39.7544C81.3995 39.9778 80.8605 39.4129 80.1615 38.9304C80.2735 38.6201 80.2045 38.3518 79.8405 38.2548C79.2457 38.1614 78.7052 37.8806 78.3125 37.461C78.3911 37.4238 78.4592 37.3704 78.5112 37.3049C78.5633 37.2394 78.598 37.1637 78.6125 37.0838C78.4362 37.1016 78.2702 37.1691 78.1375 37.277C77.9815 37.1204 77.8295 36.9566 77.6835 36.7908C77.9985 36.6325 77.9065 36.1006 77.4675 36.5611C77.3295 36.3963 77.1675 35.9348 77.1905 36.0832C76.8046 35.3627 76.2183 34.7479 75.4905 34.3006C75.1271 34.1305 74.7197 34.0545 74.3125 34.0809C73.7565 34.112 73.6475 33.9298 73.1125 33.7678C73.7385 34.4132 71.9055 35.1969 71.8015 36.1582C71.6395 37.6231 73.3875 39.271 74.4015 40.2561C76.7685 42.4371 79.6411 44.1027 82.8065 45.1294C85.1682 45.956 87.6504 46.4586 90.1725 46.6208C91.4802 46.7576 92.8046 46.6533 94.0676 46.3141C95.5066 45.8545 95.9365 44.8392 94.1885 44.3082ZM93.8035 44.2167C93.7585 44.2075 93.7116 44.1992 93.6666 44.191C93.7316 44.0308 93.7755 44.0335 93.8035 44.213V44.2167ZM92.2415 43.3588C92.1705 43.3588 91.6186 43.1693 91.3566 43.1464C91.6606 43.053 92.2935 42.8324 92.2415 43.3551V43.3588ZM91.1196 43.4824C91.1966 43.4018 91.0455 43.7671 90.9855 43.6719L91.1196 43.4824ZM91.6045 43.8001C91.5275 43.7772 91.5775 43.9292 91.6045 43.8001C91.5985 43.8129 91.5886 43.7909 91.6016 43.7964L91.6045 43.8001Z" fill="#FF4A4A"/>
<path d="M107.815 32.2591C100.454 21.5063 88.6389 12.829 75.0989 9.67873C71.7979 8.90274 68.4069 8.4927 64.999 8.45743C63.1877 8.44352 61.3775 8.54231 59.5809 8.75314C58.7459 8.85385 58.067 8.35124 57.165 8.39335C56.353 8.43272 55.5649 8.64695 54.7559 8.70096C54.5159 9.04978 51.6559 8.86209 51.3179 8.86392C50.2529 8.87308 49.1909 8.83645 48.1269 8.90054C47.8949 8.90054 47.0629 9.60183 47.3729 9.81606C46.6179 10.0704 45.9263 10.4608 45.3389 10.9641C44.6139 11.4503 43.7649 11.7368 43.0669 12.2596C42.5949 12.6148 38.6569 14.3882 39.3999 12.7091C38.3985 13.0346 37.5078 13.5949 36.8169 14.3342C36.0319 15.3843 33.9169 14.6473 32.6889 15.0428C32.1729 15.1984 29.917 16.4289 30.846 17.0313C31.154 17.23 33.1339 15.9253 33.7779 15.8613C31.8512 16.7542 30.0651 17.8813 28.4679 19.212C28.4011 19.2839 28.3172 19.3407 28.2226 19.378C28.128 19.4153 28.0253 19.4322 27.9224 19.4273C27.8195 19.4225 27.7192 19.396 27.6293 19.3499C27.5394 19.3038 27.4623 19.2394 27.4039 19.1617C27.0569 18.8349 26.477 19.3118 26.221 19.5059C25.48 20.0754 24.5699 20.4086 24.6139 21.4239C24.0249 20.6696 23.2449 21.6858 22.6799 22.1133C22.3319 22.3761 21.9289 22.5766 21.5669 22.8247C20.6609 23.4454 20.7059 23.6871 21.6299 24.1879C21.0099 24.7043 21.0939 24.3591 20.7429 23.8299C20.3373 24.7526 19.7806 25.6133 19.092 26.3824C18.812 26.6369 18.534 26.896 18.26 27.1551C18.0804 27.1082 17.9244 27.0053 17.819 26.8642C17.7137 26.723 17.6655 26.5526 17.6829 26.3824C16.4652 27.4507 15.3523 28.6148 14.3569 29.8614C13.4929 31.1431 13.124 32.5375 12.139 33.7624C11.22 34.9068 10.2179 35.9194 9.21995 37.0043C8.67634 37.5739 8.1891 38.1867 7.76395 38.8353C7.57893 39.3338 7.35465 39.8194 7.09293 40.2883C6.76693 40.6545 6.32995 40.6673 6.06095 41.1452C5.80095 41.6029 5.57893 42.09 5.32493 42.556C4.71073 43.8788 4.28298 45.2678 4.05195 46.6896C3.70384 48.0586 3.10902 49.3649 2.29194 50.5549C1.85494 51.1958 0.826944 52.4683 1.90494 52.9353C1.34294 52.8245 0.604952 54.7782 0.474952 55.1673C0.300952 55.6873 1.40296 59.3787 0.285956 59.0939C0.115956 60.2997 0.0599362 61.5173 0.00293625 62.7322C0.00205764 63.0997 0.0894664 63.4629 0.258948 63.7961C0.243948 64.3051 -0.0160496 64.7116 0.00495041 65.1694C0.0848624 68.2294 0.452868 71.2775 1.10493 74.2797C2.52581 80.6213 5.06254 86.7095 8.61594 92.3063C8.55194 93.0689 9.67995 94.0687 10.0949 94.6766C10.4819 95.1801 10.9209 95.6544 11.2609 96.1094C11.0939 96.8949 13.5129 99.1123 14.0729 99.777C15.3819 101.315 16.8081 102.766 18.3409 104.12C19.5409 105.185 20.8239 106.181 22.0409 107.226C23.3889 108.209 23.764 109.753 24.941 110.822C25.433 111.272 26.2809 113.122 27.0509 112.072C27.2589 112.183 31.3249 114.163 31.1599 113.403C31.0869 113.064 28.9729 112.158 28.6249 111.873C29.6249 112.487 30.651 113.063 31.691 113.624C32.534 114.076 32.9269 114.88 33.8439 115.287C34.7443 115.693 35.7165 115.949 36.7149 116.044C38.0989 116.633 39.5069 117.165 40.9009 117.723C44.6904 119.114 48.6585 120.057 52.7089 120.527C60.8307 121.726 69.1358 121.37 77.0999 119.483C85.308 117.496 92.8928 113.775 99.2449 108.617C105.597 103.46 110.539 97.011 113.675 89.7877C122.021 71.1523 119.433 49.2393 107.815 32.2591ZM114.096 72.7188C114.422 72.4093 114.724 71.9707 115.196 71.8362C114.939 73.908 114.489 76.7379 113.223 78.5891C112.807 79.1924 112.714 78.4261 112.502 79.3929C112.402 79.8433 112.273 80.2846 112.137 80.7277C111.783 81.9179 111.43 82.0479 112.888 82.3857C112.701 82.9808 112.903 83.2564 112.188 83.0119C112.616 84.1463 111.92 85.3008 111.505 86.3655C110.185 83.7938 106.295 83.6794 103.925 82.35C100.225 80.2718 102.976 75.7336 101.466 72.5997C100.512 70.6204 98.3049 70.0528 96.7869 68.5641C96.1549 67.9099 95.6854 67.1379 95.4109 66.3015C95.1364 65.465 95.0634 64.584 95.197 63.7192C97.289 63.7192 98.1519 61.8488 97.3969 60.275C97.2599 59.9893 95.9639 58.6783 95.6519 59.191C95.3439 59.1416 95.271 58.931 95.002 58.7973C94.865 58.7278 94.663 59.1406 94.312 59.1379C94.38 59.0225 94.5559 58.4265 94.7119 58.3844C94.4874 58.4945 94.3083 58.6688 94.2019 58.8806C93.9739 59.3384 93.4149 59.1315 92.9249 59.1233C92.2054 58.9619 91.4554 58.9516 90.731 59.0931C88.666 59.0647 86.649 59.0683 84.611 59.191C84.806 59.1068 84.3339 58.5886 83.8109 59.2478C83.2489 59.289 82.8049 59.4382 82.2969 59.1828C82.2969 59.213 82.397 58.4796 82.197 58.4842C82.179 58.6774 82.1609 58.8688 82.1359 59.0574C82.1029 58.9283 82.059 58.9154 82.007 59.0216C82.05 58.8449 82.101 58.6691 82.156 58.4943C81.799 58.6673 81.7939 59.4464 81.4559 59.494C80.8644 59.4378 80.2673 59.4554 79.6809 59.5462C79.9709 58.963 79.312 59.4492 79.1379 59.5462C78.938 59.6598 78.774 59.9509 78.538 59.8511C78.209 59.7119 78.0379 59.7257 77.9979 60.1358C77.9439 59.8795 77.811 59.0546 77.346 59.061C76.709 59.0692 76.827 60.0443 76.632 59.061C76.464 59.3256 76.1619 60.0782 75.6769 60.0159C75.6959 59.8136 75.6786 59.6098 75.6259 59.4126C75.5119 59.614 75.432 59.83 75.3889 60.0534C74.4459 60.1871 74.6999 60.6183 74.8789 61.3773C74.8179 61.1823 74.6919 60.5862 74.479 60.4828C74.394 60.4416 74.646 61.4578 74.591 61.2372C74.521 61.0761 74.4439 60.9186 74.3629 60.762C74.5629 61.2876 74.803 61.3544 74.463 61.8314C74.3305 62.0232 74.2642 62.2472 74.2728 62.474C74.2813 62.7008 74.3643 62.92 74.5109 63.103C75.3749 64.1833 78.2569 64.0387 79.5419 64.025C79.5239 64.0414 78.806 64.6567 79.288 64.6475C79.261 64.7088 79.6819 66.3366 79.0189 65.7791C78.9189 66.105 79.2729 66.2369 78.9669 66.42C78.8199 66.5115 78.0739 67.0608 78.7349 67.0819C78.8349 67.0819 78.935 66.7056 78.958 66.6882C78.806 67.0288 78.4339 68.0798 78.6259 68.1741C78.3149 68.1292 78.091 68.8507 79.0259 68.7545C79.091 69.2938 77.9559 68.4451 78.6259 69.1363C78.7579 69.2764 79.0539 69.7644 78.479 69.5135C78.643 70.1745 79.215 70.429 79.395 71.0223C79.522 71.4595 79.7459 71.868 80.0529 72.2225C80.3329 72.4761 81.4189 73.3871 81.5529 73.2671C81.2049 73.6553 82.2339 73.8403 82.1029 73.6269C82.0549 73.5491 81.681 73.1792 81.609 73.2186C81.944 72.9485 82.579 74.2092 82.65 74.2596C82.831 74.3859 83.923 74.9746 83.916 74.9499C83.9605 75.1845 84.0957 75.3967 84.2969 75.5477C84.3616 75.4867 84.4103 75.4131 84.4392 75.3323C84.4682 75.2516 84.4766 75.1659 84.4639 75.0817C84.9799 75.5779 84.9129 75.9057 85.1419 76.5374C85.4662 77.3729 85.473 78.2843 85.161 79.1237C85.099 79.3691 85.0179 80.1775 84.7149 80.2654C84.7939 80.2425 84.288 80.4897 84.301 80.5254C84.314 80.5611 84.5199 81.2203 84.5009 81.2395C84.5125 81.1586 84.547 81.0819 84.601 81.017C84.461 81.4748 84.033 81.4491 84.088 81.9774C84.118 82.274 84.0229 82.3061 83.8599 82.5386C83.6969 82.7711 83.973 82.8929 84.14 82.9652C84.0817 83.2235 84.0652 83.4881 84.091 83.7508C83.7439 83.5448 83.677 84.1499 83.825 84.1664C84.099 83.7425 84.4889 85.146 84.7559 85.471C84.657 85.5542 84.5262 85.5983 84.3919 85.5937C84.5209 85.7818 84.6647 85.9611 84.822 86.1302C85.268 85.3648 85.5659 86.5623 85.7769 86.6722C85.9699 86.7747 87.4519 87.0384 87.1069 87.519C87.3489 87.5602 88.4919 87.899 88.4069 88.0134C88.8055 88.1154 89.1969 88.2395 89.5789 88.3851C89.5288 88.4204 89.4844 88.462 89.447 88.5087C89.527 88.5481 89.5789 88.5179 89.6019 88.4172C89.4809 88.8676 90.2019 88.3366 90.2019 88.8008C90.8463 88.9562 91.4404 89.2514 91.934 89.6614C93.475 91.0264 93.6509 93.111 93.6899 94.9622C93.5902 97.0728 94.1018 99.1701 95.1729 101.041C95.2299 101.018 95.7859 102.614 96.1249 102.695C96.2859 102.731 97.339 103.56 97.166 103.196C97.416 103.383 98.0039 103.586 97.9899 103.95C98.0059 103.56 98.6679 104.086 98.8229 104.154C97.7289 104.97 96.9749 106.043 95.9639 106.93C94.757 107.808 93.476 108.597 92.1329 109.289C92.3201 109.475 92.4963 109.67 92.661 109.872C92.209 110.158 91.8219 110.605 91.4929 110.341C91.5479 111.488 87.1929 112.003 86.2759 112.323C85.3269 112.692 84.4012 113.109 83.5029 113.572C83.1399 113.742 82.5389 113.859 82.6029 114.351C82.6789 114.94 82.5449 114.787 81.9479 114.992C81.7009 114.316 81.8259 114.205 81.0599 114.38C80.3309 114.549 80.3489 114.741 80.0189 115.315C79.8502 115.585 79.5799 115.79 79.2584 115.891C78.937 115.992 78.5863 115.983 78.2719 115.864C77.8719 115.736 77.8109 115.361 77.3109 115.656C77.5751 115.819 77.8295 115.996 78.0729 116.184C77.2835 116.473 76.4538 116.661 75.6079 116.741C75.4079 116.024 74.753 116.294 74.242 116.518C74.0635 116.621 73.8703 116.701 73.6679 116.755C73.2569 116.81 73.3469 116.348 73.0369 116.395C72.5699 116.46 72.106 116.526 71.637 116.593C71.927 116.757 72.2199 116.912 72.5189 117.06C71.9359 117.297 72.8969 117.335 71.8359 117.499C71.5431 117.314 71.1936 117.219 70.8381 117.229C70.4826 117.238 70.1396 117.351 69.859 117.551C68.608 118.251 66.471 118.116 65.015 118.174C65.05 117.977 65.0966 117.782 65.1549 117.59C63.9159 117.736 62.7779 117.186 61.5549 117.183C61.835 117.466 61.9932 117.832 61.9999 118.214C59.9322 118.192 57.8675 118.063 55.816 117.825C55.8459 117.767 55.8599 117.704 55.8568 117.64C55.8538 117.576 55.8337 117.514 55.7983 117.46C55.763 117.405 55.7134 117.359 55.6541 117.325C55.5947 117.292 55.5274 117.273 55.458 117.269C54.744 117.138 55.0649 117.924 54.2749 117.411C53.5699 116.953 53.2959 116.531 52.3529 116.338C51.8959 116.24 50.6899 115.808 50.4069 116.229C49.7729 117.182 47.7289 116.192 47.1069 115.74C46.8939 116.438 46.3189 116.114 46.5069 115.374C45.7016 115.095 44.8742 114.873 44.0319 114.709C43.5769 114.559 43.0319 113.835 42.4849 114.025C42.2605 114.148 42.0793 114.328 41.9629 114.542C41.4709 114.359 40.9709 114.191 40.4809 114C39.8979 113.726 39.2809 113.506 38.6809 113.252C37.7809 112.868 37.681 112.169 36.945 111.672C36.3227 111.355 35.6711 111.089 34.9979 110.876C34.7389 110.772 32.7339 111.127 33.8149 110.367C32.8689 109.92 31.8929 109.52 30.9649 109.037C30.0584 108.63 29.2441 108.069 28.5649 107.384C27.1099 106.056 25.3769 105.491 23.9349 104.318C24.0839 104.212 24.3349 104.161 24.1719 103.972C24.1719 103.972 24.5339 103.628 24.5599 103.606C24.8519 104.035 25.0239 102.731 25.0599 102.72C24.9599 102.751 24.8899 102.849 24.8219 102.919L25.4499 101.924C25.9829 102.565 25.6429 102.021 26.1699 101.592C26.5269 101.318 25.96 101.318 26.07 101.129C26.126 101.027 26.4609 101.383 26.4699 101.397C27.0399 101.167 26.5849 99.8465 27.1049 99.9317C27.5529 99.9939 27.5589 99.505 27.5219 99.2524C27.5929 99.2972 27.6589 99.3439 27.7269 99.3888C27.9409 98.9777 28.4369 98.2553 28.1759 97.9679C28.3129 98.1208 28.5669 97.674 28.5369 97.5321C28.6289 97.2703 28.0939 97.457 28.0369 97.1824C28.3513 97.0598 28.6228 96.8606 28.8219 96.6065C28.5619 96.5726 28.441 96.4188 28.264 96.3584C29.121 96.5726 28.657 96.0727 28.988 95.691C28.7793 95.702 28.5736 95.7418 28.3779 95.8091C28.3659 95.7099 28.3824 95.6095 28.4259 95.5179C28.5969 95.5994 28.8429 95.5463 29.0109 95.6315C29.0499 95.4026 29.0819 95.1737 29.1019 94.9421C29.014 94.9806 28.9144 94.9908 28.8193 94.971C28.7241 94.9513 28.6391 94.9027 28.5779 94.8331C28.7531 94.7978 28.9349 94.8 29.109 94.8395C29.1225 94.6162 29.1181 94.3922 29.096 94.1694C28.779 94.304 28.5309 94.3809 28.4959 93.9982C28.5959 94.1721 28.7859 94.1968 29.087 94.0687C29.0779 93.675 29.1089 93.2218 28.5779 93.4214C28.6368 93.379 28.6817 93.3227 28.708 93.2585C28.7342 93.1944 28.7408 93.1248 28.7268 93.0575C28.7129 92.9902 28.6791 92.9277 28.629 92.8767C28.5789 92.8258 28.5146 92.7884 28.4429 92.7686C27.8899 92.6634 29.2 92.0875 28.471 91.9172C28.4041 92.016 28.309 92.0961 28.1959 92.1488C28.1139 91.7744 28.2959 91.1235 28.2089 90.8671C28.157 90.7522 28.1152 90.6338 28.0839 90.5128C27.6639 90.6263 27.7839 89.427 27.7779 89.1047C27.7709 87.7314 28.1959 84.6388 29.8579 84.2525L29.7059 84.1765C29.8761 84.0267 30.0564 83.8869 30.2459 83.7581C30.6699 83.4752 30.6179 83.8698 31.1399 83.6354C30.5209 83.2692 31.8879 83.0513 31.9309 82.9588C32.8219 83.3498 32.431 82.4736 33.087 82.5569C33.081 82.5279 33.0673 82.5007 33.0469 82.4778C33.0266 82.4549 33.0003 82.437 32.9704 82.4258C32.9406 82.4146 32.9082 82.4105 32.8761 82.4137C32.8441 82.4169 32.8134 82.4274 32.7869 82.4443C32.8869 82.3802 34.1559 82.5588 33.6719 81.9197C34.5479 81.8355 35.1719 80.2196 34.7619 80.1107C35.7419 79.5806 34.5109 79.1951 34.4809 78.7172C34.6549 78.7864 34.8407 78.8273 35.0299 78.8381C34.9539 78.3886 33.5749 77.7861 34.7299 77.5005C34.7049 77.5509 34.6779 77.6058 34.6529 77.6589C35.3209 77.5591 33.1249 76.9375 34.6619 77.1727C33.9569 76.8908 33.7889 76.2838 33.6619 75.4836C33.4806 74.8425 33.3444 74.1915 33.2539 73.5345C32.9669 73.496 33.688 72.7664 33.626 72.814C33.666 72.781 33.477 72.4587 33.898 72.348C34.123 72.2885 34.3279 71.9689 34.4199 71.7986C34.5049 71.925 35.39 71.2145 35.161 70.7916C35.467 70.9673 35.5879 70.6414 35.5759 70.4254C36.2238 70.2063 36.8294 69.8942 37.3699 69.5007C37.3129 69.4641 37.0039 69.4009 37.1699 69.2498C37.3399 69.1711 37.4259 69.2352 37.4329 69.4403C37.8722 69.0601 38.2738 68.6449 38.6329 68.1997C38.2887 68.1415 37.9633 68.0129 37.6809 67.8234C37.7809 67.676 38.581 68.1027 38.673 68.1585C39.0024 67.6813 39.1724 67.1263 39.1619 66.5619C38.8619 66.5957 38.5619 66.6205 38.2539 66.6287C38.2299 66.2973 38.9609 66.4456 39.1619 66.495C39.1919 66.1014 39.283 65.3049 38.695 65.4449C38.7098 65.4183 38.7303 65.3946 38.7553 65.3753C38.7802 65.356 38.8092 65.3414 38.8403 65.3324C38.8715 65.3233 38.9043 65.3201 38.9368 65.3227C38.9694 65.3254 39.001 65.3339 39.0299 65.3479C39.0089 65.2563 38.9879 65.1712 38.9689 65.0824C38.7646 65.1158 38.567 65.1775 38.3829 65.2655C38.3729 64.7409 39.0719 65.3882 38.8639 64.7162C38.7699 64.7601 38.6749 64.8077 38.5799 64.8553C38.3579 64.7638 38.8219 64.7153 38.8639 64.7162C38.7469 64.35 38.6439 63.97 38.5639 63.5937C40.7277 63.6057 42.8897 63.4781 45.0339 63.212C47.1789 62.9053 46.089 60.7401 47.1339 60.1505C45.8589 60.2146 47.0339 58.6344 45.5339 58.4302C44.9909 58.3551 45.277 58.7049 44.725 58.2563C44.625 58.1757 44.325 57.9047 44.161 58.0732C43.716 58.5456 44.702 58.7653 43.5089 58.4979C43.6639 58.3423 43.8959 57.6822 44.1229 57.63C43.8444 57.7318 43.6115 57.9166 43.462 58.1546C43.12 58.6856 41.9129 58.2105 41.2619 58.1656C41.3619 58.0338 41.354 57.5733 41.182 57.4845C40.941 57.3554 40.954 58.0118 41.13 58.1528C38.0219 57.9633 35.0079 58.5245 31.9989 58.8193C32.3899 58.6966 31.7429 58.1958 31.1499 58.9008C30.5812 59.0386 29.9821 59.0307 29.4179 58.8779C29.4179 58.8944 29.5239 58.172 29.3019 58.1849C29.2859 58.3771 29.2649 58.5703 29.2399 58.7598C29.1999 58.6316 29.1479 58.6206 29.0899 58.7287C29.1389 58.5456 29.1899 58.3716 29.2549 58.1958C29.0608 58.3531 28.9068 58.5475 28.8039 58.7653C28.2599 59.7046 28.7729 58.8788 28.2829 59.0308C27.7359 59.2011 26.9169 59.1223 26.4219 59.3155C26.8029 58.6902 25.6219 59.3732 25.4819 59.4602C25.1439 59.6616 25.2679 59.5938 24.8599 59.4904C24.1669 59.3173 25.2189 59.8364 24.4659 59.8364C24.4149 59.5288 24.2889 58.6628 23.7309 58.7607C23.1309 58.8687 23.1309 59.5847 23.0379 58.7049C22.7979 58.9878 22.3919 59.668 21.8699 59.56C21.9227 59.3626 21.9349 59.158 21.906 58.9566C21.872 58.8788 21.5669 59.4904 21.5489 59.5682C20.5419 59.6012 20.6769 59.9921 20.7349 60.8335C20.7019 60.643 20.6579 60.0159 20.4609 59.906C20.3689 59.8529 20.452 60.8811 20.4359 60.6678C20.3869 60.502 20.3359 60.3345 20.2739 60.1679C20.9459 60.816 20.2829 61.6766 20.4609 62.3175C20.7609 63.406 23.3829 63.8565 24.3609 63.9911C23.6609 66.7981 19.6609 66.8292 18.4469 69.2645C17.2329 71.6998 19.7059 74.4069 18.4349 76.7882C17.0039 79.4716 11.5679 78.7548 11.2789 82.3729C11.0449 85.2778 13.7859 88.8072 12.2029 91.5867C10.1409 88.5371 8.02395 85.1863 7.12095 81.6826C6.15495 77.9436 4.31395 73.9977 3.74195 70.4162C3.62395 69.6838 3.19695 68.5083 3.74195 67.9974C4.03195 67.7227 3.97094 66.9079 3.89194 66.5683C3.74194 65.9201 2.81593 66.3247 3.60493 65.3946C4.53493 64.3005 3.22895 64.2877 3.23795 63.4509C3.24795 62.6993 3.05694 61.4368 3.60694 60.9314C4.02903 60.3047 4.24048 59.5781 4.21494 58.8422C4.42796 57.6458 4.53233 56.4353 4.52695 55.2231C4.68352 55.3159 4.85394 55.3875 5.03294 55.4355C5.16794 54.7818 4.64793 54.7818 4.75593 54.2911C4.82893 53.9817 4.91693 53.9469 5.26893 53.9149C5.33425 53.6389 5.36313 53.3567 5.35493 53.0744C5.54208 51.0322 6.04929 49.0252 6.86094 47.1153C9.01171 42.3625 11.9064 37.9215 15.454 33.9318C14.749 33.8732 15.5059 33.4383 15.7539 33.1472C15.9489 33.9034 16.6999 32.5832 17.0539 32.2115C17.7339 31.4938 18.4319 30.787 19.1709 30.1232C20.6517 28.7971 22.2086 27.5441 23.8349 26.3696C23.4828 26.2905 23.1394 26.182 22.8089 26.0455C23.0499 25.845 23.2909 25.6518 23.5329 25.4568C23.7566 25.6719 23.9513 25.9107 24.113 26.1682C27.013 24.2575 29.7249 22.1234 32.7129 20.3317L31.8769 19.798C32.1309 19.6552 32.3889 19.5178 32.6489 19.3796C32.7869 19.6231 32.926 19.8685 33.066 20.112C35.0615 18.8149 37.1684 17.6677 39.3659 16.6816C39.3033 16.5754 39.2409 16.4676 39.1789 16.3584L39.8659 16.0764C39.8899 16.1151 39.9049 16.1578 39.9101 16.202C39.9152 16.2463 39.9104 16.291 39.8958 16.3334C39.8813 16.3758 39.8574 16.415 39.8256 16.4486C39.7938 16.4822 39.7547 16.5095 39.7109 16.5287C40.1169 16.3456 41.5649 15.9391 41.1929 15.5903C41.4189 15.5088 41.9349 15.116 41.8479 15.5573C44.4173 14.5074 47.0852 13.6727 49.8189 13.0634C50.7742 12.7734 51.7965 12.7212 52.781 12.9124C53.9065 13.0778 55.0495 13.1202 56.186 13.0387C58.264 13.0982 60.346 13.0717 62.424 13.1513C63.376 13.187 66.189 13.8022 66.374 12.8629C66.66 12.8437 66.6429 13.1257 67.2739 13.046C68.082 12.9598 68.8993 12.9779 69.7019 13.1C69.5738 13.2676 69.4598 13.4439 69.361 13.6274C69.7343 13.6585 70.1046 13.7061 70.4719 13.7702C70.4197 13.5947 70.4324 13.4083 70.5079 13.2401C72.1684 13.7743 73.9277 14.0033 75.6849 13.9139C76.5784 13.7888 77.4922 13.879 78.3359 14.1758C79.3639 14.4687 80.3806 14.7956 81.3859 15.1563C81.0763 15.2803 80.7559 15.3801 80.4279 15.4548C81.9385 15.7993 83.3928 16.3251 84.7529 17.0185C85.4457 17.4208 86.0951 17.8828 86.692 18.3982C87.457 18.0768 87.6469 17.9569 88.3549 18.3533C88.1789 18.6994 87.6769 18.823 87.3549 19.0061C87.981 19.6109 88.7131 20.1156 89.5209 20.4993C90.1052 20.7597 90.7103 20.9788 91.3309 21.1548C92.8419 21.7911 94.11 22.8027 95.648 23.3942C96.548 24.1421 96.2479 24.2117 96.2399 25.2114C96.2399 25.9127 96.9529 25.9796 97.5089 26.1142C97.5769 26.1334 97.509 26.8173 97.765 27.0855C98.097 27.438 98.4259 27.7896 98.7559 28.1384C99.1699 27.4975 99.5669 28.0468 100.004 28.2885C99.7289 28.3856 99.452 28.4817 99.174 28.576C101.364 30.9237 103.347 33.4267 105.105 36.0613C105.571 35.6649 105.931 35.7793 105.605 36.3295C105.296 36.8541 106.231 37.8099 106.547 38.3437C106.713 38.7025 106.899 39.0531 107.105 39.3938C107.574 40.0191 108.161 38.8152 108.356 38.6559C108.637 39.1475 108.906 39.6437 109.171 40.1408C109.05 40.2831 108.976 40.454 108.957 40.6335C108.938 40.813 108.976 40.9936 109.065 41.1543C109.437 42.1788 109.25 43.2985 109.684 44.311C109.839 43.0522 111.689 43.6546 110.884 44.929C110.363 45.753 110.293 46.241 111.116 46.8846C111.983 47.5657 111.891 48.6689 111.888 49.6101C112.257 49.3255 112.592 49.0061 112.888 48.657C113.016 49.0425 113.142 49.4279 113.263 49.8133L111.963 50.0028C112.429 51.3075 112.663 52.6698 112.992 54.0055C113.425 53.8459 113.877 53.7331 114.338 53.6695C114.496 54.3516 113.997 54.9512 113.143 54.5777C113.406 55.8375 113.57 57.1137 113.799 58.379C114.07 58.1839 114.399 57.7509 114.793 57.7848C115.393 57.8461 115.241 58.8605 115.293 59.3228C114.802 59.2791 114.325 59.1511 113.886 58.9456C113.965 60.4588 114.145 61.9661 114.425 63.4592C114.817 63.4231 115.201 63.3278 115.559 63.1772C115.299 63.4839 115.424 63.8666 115.221 64.1842C115.018 64.5019 114.621 64.4076 114.669 64.8764C114.66 65.8072 114.937 66.7216 115.469 67.5149C115.619 67.6623 115.487 68.4002 115.469 68.6044C115.409 69.5254 115.237 68.8864 114.639 69.3277C114.286 69.8233 114.055 70.3832 113.961 70.9686C113.867 71.5541 113.913 72.1512 114.096 72.7188ZM107.033 94.7059C107.471 94.062 107.973 93.4564 108.533 92.8968C108.133 93.6393 107.91 94.4367 107.033 94.7059ZM109.639 90.7206C109.355 90.4414 109.004 90.2235 108.699 89.9589C108.186 91.0255 107.527 92.028 107.019 93.09C106.527 94.1199 106.366 95.2158 105.772 96.2147C105.434 96.7814 103.923 98.2618 104.356 98.7195C104.856 99.2533 102.998 100.963 102.522 101.496C102.748 100.959 102.896 100.396 102.962 99.8236C102.453 100.392 101.98 100.987 101.546 101.605C101.323 101.91 101.091 102.211 100.846 102.504C100.37 102.272 99.9142 102.006 99.4829 101.709C98.4431 100.999 97.6453 100.034 97.1829 98.9246C96.2829 96.7209 96.5979 94.2555 96.2759 91.9529C96.2387 91.0559 95.9386 90.1846 95.4071 89.4303C94.8755 88.6759 94.1322 88.0664 93.255 87.6655C91.498 86.7271 89.4549 86.0908 87.9309 84.8274C86.1309 83.3223 86.9579 81.7952 87.6799 79.9898C88.3408 78.6598 88.4821 77.1622 88.08 75.7482C87.431 74.0499 85.5019 72.8414 84.0529 71.7346C82.8629 70.8245 81.9149 70.0976 81.6129 68.652C81.3664 67.3364 81.4464 65.9868 81.8469 64.7034C82.1219 63.7769 82.347 63.8904 83.367 63.8345C84.4569 63.7732 85.5539 63.743 86.6469 63.7118C88.8699 63.6615 91.0939 63.6652 93.3159 63.7009C92.999 64.4135 92.8554 65.1808 92.895 65.9494C92.895 66.2433 92.4139 66.4245 92.7659 66.8731C92.931 67.2505 92.9905 67.6596 92.939 68.0633C92.774 68.208 93.5699 69.4128 93.7189 69.3286C93.5509 69.4494 93.848 69.7689 94.036 69.7113C94.087 69.6966 93.8709 69.2691 93.768 69.3029C93.4809 69.4503 95.4629 70.5727 95.4479 70.5453C95.5479 70.7101 95.6119 70.7092 95.8359 70.9023C95.8657 70.85 95.8821 70.7921 95.8838 70.7331C95.8855 70.6741 95.8726 70.6155 95.846 70.5618C96.3489 70.8752 96.8076 71.2442 97.2119 71.6604C97.1509 71.6219 97.843 71.892 97.791 72.0577C98.721 72.694 98.8069 72.857 98.8909 73.734C98.8809 73.6233 99.4269 74.0014 99.3969 73.9172C99.3425 73.7982 99.2978 73.6759 99.2629 73.551C99.5279 73.9895 100.435 76.9576 100.05 77.0025C100.022 77.6918 99.699 78.546 99.757 78.9855C100.144 79.0523 99.5169 79.4176 99.5219 79.4963C99.5309 79.5989 99.7879 79.771 99.7929 79.868C99.4689 79.868 99.4809 79.868 99.4489 80.0814C99.7239 80.02 99.8489 80.0814 99.8339 80.2645C99.4519 80.4476 99.6629 80.3432 99.4169 80.2874C99.3979 80.4073 99.3499 80.5968 99.7169 80.7039C99.3969 80.7039 99.292 80.8303 99.403 81.0802C100.114 80.7982 100.383 82.0754 100.746 82.4928C101.493 83.2601 102.436 83.8463 103.491 84.1994C105.591 85.0233 108.171 85.5727 109.4 87.5218C108.91 87.0302 109.192 87.5547 109.187 87.6326C109.168 87.6188 108.515 87.0063 108.515 87.0063C109.089 86.7317 108.594 86.8919 108.304 86.4927C108.085 86.197 108.097 86.6346 107.925 86.5321C108.025 86.5907 108.132 86.2007 107.791 86.0231C107.727 86.1302 106.958 85.8748 106.973 85.937C106.891 85.5461 106.882 85.4902 106.449 85.5452C106.483 85.5012 106.519 85.4536 106.549 85.4115C106.6 85.4316 105.217 84.8219 105.426 85.124C105.2 84.7945 105.091 84.8311 104.953 85.1836C104.614 85.1579 104.853 84.8036 104.425 84.68C104.383 84.8384 104.263 84.9226 104.206 85.0343C104.395 84.5363 104.006 84.7716 103.767 84.5171C103.712 85.6258 104.182 84.475 104.544 85.201C104.763 85.6367 105.707 85.7393 105.929 85.2687C105.833 85.4069 105.749 85.5514 105.676 85.7008C105.984 85.8839 106.231 85.8674 106.405 85.5928C106.154 86.0698 106.805 86.241 107.252 86.241C107.384 86.241 108.82 87.9475 108.897 87.9054C108.925 87.8377 108.928 87.7631 108.904 87.6939C108.98 87.7377 109.044 87.7969 109.091 87.8669C109.138 87.9369 109.167 88.0158 109.175 88.0976C109.184 88.1793 109.172 88.2618 109.14 88.3386C109.108 88.4155 109.057 88.4846 108.992 88.5408C109.092 88.5381 109.19 88.515 109.279 88.473C109.267 88.5115 109.206 89.8088 109.086 89.7602C109.215 89.6878 109.317 89.5803 109.376 89.4526C109.258 89.6121 109.161 89.7835 109.086 89.9635C109.226 90.2821 109.845 88.7541 109.86 88.5261C109.939 88.7797 110.016 89.0754 110.338 89.1487C110.12 89.6751 109.89 90.2024 109.643 90.7234L109.639 90.7206ZM84.3919 75.0121C84.2569 74.9902 84.1229 74.9672 83.992 74.9499L84.1729 74.7887L84.3919 75.0121ZM83.7109 74.5818L83.8179 74.3419C84.1769 74.623 83.9599 74.6386 83.7149 74.5846L83.7109 74.5818ZM75.4829 60.0388C75.5009 59.9362 75.6179 59.2771 75.6179 60.0196L75.4829 60.0388ZM76.8729 60.0745C76.896 59.9713 76.9319 59.8708 76.9799 59.7751C76.9549 59.8062 77.096 60.4782 76.947 60.5368C76.925 60.3858 76.9009 60.2301 76.8759 60.0763L76.8729 60.0745ZM77.257 60.2777C77.318 60.0031 77.3479 60.0424 77.3489 60.4032C77.2609 60.4553 77.233 60.4141 77.26 60.2823L77.257 60.2777ZM77.4569 59.8676C77.5189 59.8209 77.5819 59.776 77.6459 59.7312C77.4939 59.8703 77.946 60.2191 77.627 60.318C77.59 60.177 77.6959 59.8529 77.4559 59.8694L77.4569 59.8676ZM79.575 64.5294C79.2776 64.5129 79.3256 64.4098 79.7189 64.2199C79.6709 64.3271 79.6239 64.4269 79.5739 64.5312L79.575 64.5294ZM79.1049 66.6525C78.9609 66.571 79.1179 66.5793 79.1049 66.6525V66.6525ZM79.005 67.3584C79.018 67.1551 79.0239 67.3584 79.005 67.3584V67.3584ZM80.6849 71.6897C80.8659 71.7931 80.8649 71.8517 80.6779 71.8728C80.5639 71.8307 80.568 71.7703 80.689 71.6915L80.6849 71.6897ZM81.1569 72.1731C81.1229 72.2436 81.1909 72.2042 81.1569 72.1731V72.1731ZM85.148 75.9267C85.303 76.0851 85.31 76.2114 85.1639 76.3085C84.9759 76.1492 84.9699 76.021 85.1519 75.9249L85.148 75.9267ZM96.5259 70.9728C96.6989 71.0113 96.745 71.0983 96.666 71.2274C96.478 71.177 96.433 71.0928 96.533 70.971L96.5259 70.9728ZM95.601 70.4107L95.7889 70.5343C95.4329 70.6103 95.6329 70.5105 95.604 70.4089L95.601 70.4107ZM95.2869 70.2176C95.4789 70.2642 95.4939 70.321 95.3359 70.3851C95.2459 70.3475 95.2279 70.2917 95.2899 70.2148L95.2869 70.2176ZM109.733 88.2881C109.7 88.213 109.669 88.1379 109.633 88.061C109.873 88.061 110.033 88.4657 109.739 88.4794C109.745 88.4156 109.743 88.3514 109.733 88.2881ZM109.613 87.9567C109.592 87.8871 109.574 87.8175 109.556 87.747C109.706 87.8706 109.725 87.9402 109.617 87.9567H109.613ZM21.0029 60.9863C21.2309 61.099 21.3729 60.9955 21.0279 61.2344C21.0189 61.1511 21.0119 61.0697 21.0029 60.9863ZM21.6839 59.559C21.7229 59.4675 21.95 58.8165 21.837 59.559H21.6839ZM23.2269 59.733C23.2628 59.6317 23.3139 59.5356 23.3789 59.4474C23.3659 59.4556 23.422 60.1432 23.26 60.1853C23.249 60.0342 23.2329 59.8831 23.2269 59.733ZM23.6409 59.9628C23.6019 60.3088 23.6839 59.3906 23.6409 59.9628V59.9628ZM23.9029 59.5572C23.9739 59.5151 24.0519 59.4711 24.1279 59.429C23.9329 59.5627 24.391 59.8511 24.036 59.9481C24.014 59.7724 24.1619 59.5499 23.9029 59.5572ZM38.4239 65.7452C38.5096 65.7497 38.5941 65.7655 38.6749 65.7919C38.5159 65.7919 38.5009 65.91 38.3879 65.9622C38.3703 65.9267 38.3643 65.8873 38.3706 65.8488C38.377 65.8103 38.3955 65.7743 38.4239 65.7452ZM37.6329 68.2473C37.5899 68.1237 37.2079 68.5595 37.5749 68.0175C37.5949 68.0908 37.6129 68.1668 37.6329 68.2473ZM34.6329 79.5815C34.5099 79.5696 34.5329 79.5247 34.6329 79.5815V79.5815ZM33.285 82.0891C33.285 82.133 33.2599 82.1514 33.2179 82.1422C33.2429 82.1253 33.266 82.1063 33.2869 82.0854L33.285 82.0891ZM25.4849 65.1337C25.7339 65.3287 25.4699 65.2755 25.2719 65.2426C25.2775 65.2222 25.2875 65.203 25.3013 65.1862C25.3151 65.1694 25.3324 65.1553 25.3523 65.1447C25.3721 65.1341 25.3941 65.1273 25.4169 65.1246C25.4397 65.1219 25.4628 65.1234 25.4849 65.1291V65.1337ZM21.2259 73.8723C21.2779 74.006 21.3259 73.8366 21.2259 73.8723C21.2419 73.8613 21.2329 73.8888 21.2259 73.8677V73.8723ZM17.0159 80.388C17.7019 80.3743 18.1909 79.8387 18.8579 79.8149L18.751 79.7399C19.212 79.5568 19.6419 79.533 20.0379 79.349C19.3859 79.0468 20.7379 78.7877 20.6459 78.8427C20.8317 78.7686 21.0051 78.6709 21.161 78.5524C21.361 78.3602 20.9009 78.2229 21.4119 78.0333C21.3489 77.9711 21.2909 77.9628 21.2389 78.0022C21.6753 77.5822 21.92 77.0255 21.9229 76.4458C21.8979 76.1968 21.7679 74.623 21.4829 74.5717C21.2079 73.7981 21.1329 73.6864 20.8999 72.9659C20.5722 72.1333 20.5214 71.2304 20.7539 70.3714C20.7839 70.2798 21.1819 69.291 21.406 69.5254C21.44 69.4924 21.9509 68.9166 21.9119 68.7344C22.4416 68.3383 23.0062 67.9831 23.6 67.6724C23.561 67.6394 23.331 67.5598 23.475 67.4609C23.615 67.416 23.6749 67.4756 23.6569 67.6349C24.0169 67.3907 24.3813 67.1502 24.7499 66.9134C24.6069 66.8484 24.1949 66.6864 24.3569 66.5115C25.0459 67.0077 25.233 66.6351 25.669 65.9622C25.447 65.878 25.2269 65.7882 25.0129 65.6875C25.1769 65.4367 25.5349 65.8239 25.6969 65.9164C25.9289 65.5346 26.2389 65.2664 25.8249 65.032C26.0869 64.9295 26.0969 65.2756 26.1659 64.87C25.6159 64.8114 25.4729 64.8416 25.5749 64.3893C25.7149 64.664 26.1089 65.1547 26.2189 64.5578C26.1339 64.5633 26.0489 64.5697 25.9659 64.5743C25.8429 64.4488 26.1849 64.5441 26.2189 64.5578C26.3629 63.8098 27.5789 64.1257 28.3399 64.0808C29.2209 64.0332 30.0969 63.9545 30.9719 63.8721C32.7719 63.7027 34.5779 63.634 36.3899 63.612C36.4989 66.1847 34.483 68.1585 32.742 69.9539C31.974 70.744 30.821 71.6439 30.781 72.7865C30.732 74.1598 31.3919 75.3078 31.7749 76.5987C33.2349 81.5425 26.8519 81.5022 25.1889 85.179C24.0629 87.6655 25.3269 89.9525 25.7689 92.4299C26.0354 93.7892 25.9945 95.1841 25.6486 96.5283C25.3027 97.8725 24.6592 99.1374 23.7579 100.245C23.0869 101.061 22.1259 102.808 21.0849 101.845C19.9079 100.758 18.7749 99.6323 17.6959 98.4632C18.3799 97.9697 15.5659 96.0224 15.3959 95.8164C16.4419 96.0142 15.566 95.2671 15.152 94.9815C15.0239 94.9799 14.898 95.0116 14.7889 95.073C14.4819 94.6876 14.189 94.2957 13.889 93.9021C14.023 93.8352 14.3169 93.7656 14.1889 93.5981C14.2129 93.5761 14.4969 93.3308 14.5469 93.2877C14.6969 93.5276 15.0969 92.776 15.0039 92.5077C14.9519 92.3567 14.6769 92.775 14.7539 92.6844C14.8747 92.3792 14.9716 92.0665 15.044 91.7487C15.633 92.0921 15.2489 91.7487 15.4439 91.2599C15.6109 90.9303 15.1779 91.1225 15.2089 90.9504C16.0669 90.6538 15.2739 90.4981 15.1789 89.7767C15.5519 89.5149 15.4479 89.3528 15.1789 89.1038C15.2449 89.1038 15.3129 89.0983 15.3789 89.0974C15.3919 89.1569 15.0259 87.639 14.8789 88.0107C14.9069 87.9347 14.9909 87.2874 14.6289 87.6024C14.5699 87.3909 14.6769 87.0887 14.6009 86.9102C14.5849 86.9102 14.51 87.0018 14.467 87.0173C13.847 84.4932 13.7759 81.6698 17.0159 80.3844V80.388ZM27.5759 98.3799C27.7099 98.4531 27.8409 98.5273 27.9759 98.5978C27.5969 98.487 27.7079 98.487 27.4609 98.346C27.4949 98.1849 27.5329 98.1931 27.5749 98.3762L27.5759 98.3799ZM24.514 102.913C24.514 102.913 24.3739 103.119 24.3379 103.088L24.514 102.913ZM27.1669 98.9823C27.2669 99.0555 27.367 99.1297 27.467 99.2038C27.308 99.1983 27.0929 99.1397 27.1659 98.9777L27.1669 98.9823ZM17.4609 98.2078C17.0039 97.988 16.9369 97.8022 17.2609 97.652C17.3329 97.8324 17.3949 98.0192 17.4609 98.2032V98.2078ZM13.9379 93.22C13.8069 93.2392 13.9139 93.2081 13.9379 93.22V93.22ZM14.5449 92.5361C14.5309 92.6595 14.4883 92.7787 14.4199 92.8858C14.4106 92.8748 14.3986 92.8659 14.3849 92.8597C14.3712 92.8536 14.3562 92.8504 14.3409 92.8504C14.3257 92.8504 14.3107 92.8536 14.297 92.8597C14.2833 92.8659 14.2713 92.8748 14.2619 92.8858C14.3569 92.7622 14.4489 92.646 14.5449 92.5315V92.5361ZM15.07 89.134C15.063 89.1175 15.17 89.0663 15.07 89.134V89.134ZM14.932 88.614C14.916 88.5554 15.194 88.376 14.932 88.614V88.614ZM13.7239 93.3747C13.5529 93.5148 13.7339 93.4168 13.7239 93.3747V93.3747ZM43.7559 14.7205C43.9049 14.9357 43.7649 14.7205 43.8969 14.6766C43.833 14.8963 43.797 14.6995 43.755 14.7123L43.7559 14.7205ZM100.675 28.1256L100.34 28.1961C100.425 27.8732 100.536 27.8469 100.674 28.1173L100.675 28.1256ZM103.985 32.044L103.03 32.3424C103.188 32.0321 103.341 31.719 103.488 31.3995C103.656 31.6082 103.819 31.8215 103.984 32.0357L103.985 32.044ZM51.3519 9.70529C50.5346 9.78116 49.7255 9.91864 48.9329 10.1164C48.9609 10.022 48.9488 9.92154 48.8991 9.83507C48.8494 9.7486 48.7657 9.68259 48.665 9.65035C49.56 9.59725 50.4559 9.70437 51.3519 9.6943V9.70529ZM34.0369 15.8393C34.2559 15.8246 34.4729 15.8091 34.6919 15.7953C34.0069 16.1167 34.5069 15.8686 34.0329 15.8265L34.0369 15.8393Z" fill="#FF4A4A"/>
<path d="M73.6494 88.1123C73.6594 87.8972 73.5574 86.8169 73.0154 87.2993C72.6561 86.5685 72.2208 85.871 71.7154 85.2165C71.7789 85.2782 71.8629 85.3188 71.9544 85.3319C71.9414 85.179 71.1954 84.5573 71.0644 84.4054C71.5394 83.9284 70.5974 83.3836 70.2124 83.25C69.6304 83.0458 68.1034 80.5034 67.6734 81.0637C67.7734 80.9429 68.4124 81.9582 68.4124 81.9582C67.7067 81.5872 67.0246 81.1797 66.3694 80.7378C67.3354 80.1354 65.3114 79.6657 65.2094 79.6099C64.9087 79.3783 64.5214 79.2631 64.1294 79.2885C63.7414 79.3462 62.6764 80.1647 62.8824 79.3499C62.9004 79.3563 61.4494 78.958 61.4614 78.9928C61.6324 78.9626 61.6984 78.8646 61.6534 78.6971C61.0077 78.8586 60.3281 78.8699 59.6764 78.73C59.9745 78.5418 60.3304 78.4455 60.6924 78.4554C60.4532 78.3793 60.2058 78.3272 59.9544 78.2998C59.3834 78.319 59.4394 78.0791 58.8544 78.0315C58.1704 77.972 57.6094 78.7319 57.2264 79.0139C57.4864 78.7822 56.4264 78.6421 56.2374 78.796C55.5964 79.2995 54.6424 78.5021 53.7824 78.8994C54.2274 78.7729 54.6619 78.6172 55.0824 78.4334C54.9214 77.7358 53.3254 78.8472 53.0894 79.0422C52.179 79.618 51.1421 80.0048 50.0514 80.1757C50.0304 80.0118 49.9684 79.5806 49.6514 79.7353C49.8764 80.2233 49.4134 80.1931 49.3394 80.4677C49.38 80.2377 49.4516 80.0132 49.5524 79.7994C49.2731 80.0571 49.0537 80.364 48.9074 80.7015C48.7611 81.039 48.6911 81.4002 48.7014 81.7632C48.3194 81.2074 47.9904 82.2878 47.9164 82.5029C47.6304 83.3434 46.6724 83.8048 46.3844 84.6644C46.4234 84.5134 46.3844 84.4264 46.2584 84.399C45.6174 84.8448 45.7884 86.5614 45.4584 87.195C45.2584 87.5712 45.3854 87.7946 45.3124 88.17C45.0964 88.1964 44.8949 88.2842 44.7363 88.421C44.5777 88.5578 44.47 88.7368 44.4284 88.9326C44.3569 89.2627 44.3661 89.6032 44.4554 89.9296C44.6134 90.5824 45.0864 90.7032 44.4554 90.9632C45.1156 91.8163 45.9032 92.5803 46.7954 93.2328C46.0954 93.4928 46.4804 93.7299 46.9884 93.7244C47.7594 93.7134 48.4314 94.0787 49.2244 94.0211C50.7194 94.4965 52.2846 94.7611 53.8664 94.8057C56.9084 94.954 59.9394 94.7379 62.9844 94.921C65.4074 95.0657 68.2194 95.1783 70.4554 94.1621C71.6454 93.621 71.8744 92.71 72.7094 91.9364C73.8964 90.847 73.5714 89.47 73.6494 88.1123ZM65.9154 80.5629C65.5478 80.4297 65.19 80.2746 64.8444 80.0987C65.2522 80.1239 65.6345 80.2894 65.9144 80.562L65.9154 80.5629ZM64.5334 80.0246C64.4514 79.9971 64.3694 79.9752 64.2894 79.9495C64.4564 79.8854 64.5384 79.9056 64.5324 80.0246H64.5334ZM62.4774 79.4359C62.1934 79.5092 62.4564 79.4908 62.4774 79.4359C62.4644 79.4615 62.4294 79.4478 62.4764 79.4359H62.4774ZM61.5384 79.1155C61.6604 79.1521 61.9014 79.0239 62.0024 79.3334C61.8654 79.3022 61.3014 79.0285 61.5374 79.1155H61.5384ZM56.4664 79.2711C56.2744 79.3444 56.1864 79.2656 56.1984 79.0313C56.3106 79.0865 56.4035 79.1697 56.4664 79.2711ZM54.6754 79.5458C54.3614 79.6126 54.5374 79.4066 54.6754 79.5458C54.6174 79.5568 54.6184 79.4908 54.6754 79.5458ZM45.0354 88.7239C45.094 88.8701 45.1155 89.0267 45.0984 89.1816C45.0754 89.0269 45.0544 88.8777 45.0354 88.723V88.7239ZM45.0814 90.0834C45.1752 90.1156 45.2523 90.1787 45.2977 90.2604C45.3431 90.3421 45.3533 90.4364 45.3264 90.5247C45.2444 90.5815 44.8074 90.1411 45.0844 90.0825L45.0814 90.0834ZM46.9414 93.3225C47.0513 93.3948 47.1666 93.46 47.2864 93.5175C47.1664 93.5679 46.2904 93.6237 46.9404 93.3216L46.9414 93.3225Z" fill="#FF4A4A"/>
</svg>
