<svg width="22" height="20" viewBox="0 0 22 20" fill="none" xmlns="http://www.w3.org/2000/svg">
<path d="M16.1566 0.322959C15.2542 0.329358 14.3638 0.529026 13.5451 0.908518C12.7264 1.28801 11.9986 1.83851 11.4106 2.52296C10.8223 1.83826 10.0942 1.28761 9.27513 0.908105C8.4561 0.528604 7.56523 0.329073 6.66257 0.322959C5.89886 0.315611 5.14135 0.460616 4.43434 0.749491C3.72734 1.03837 3.08503 1.46531 2.54498 2.00536C2.00493 2.54541 1.57798 3.18773 1.2891 3.89473C1.00023 4.60174 0.855223 5.35925 0.862571 6.12296C0.862571 10.11 4.44857 13.359 9.88057 18.295L11.4096 19.677L12.9386 18.285C18.3716 13.36 21.9626 10.111 21.9626 6.12296C21.9699 5.35874 21.8247 4.60073 21.5355 3.89332C21.2462 3.18592 20.8188 2.54333 20.2781 2.0032C19.7374 1.46307 19.0943 1.03625 18.3866 0.747736C17.6789 0.45922 16.9208 0.314808 16.1566 0.322959ZM11.5156 16.723L11.4106 16.828L11.3056 16.723C6.28357 12.178 2.97257 9.17196 2.97257 6.12296C2.96021 5.63501 3.04721 5.14964 3.22827 4.69637C3.40934 4.24309 3.68069 3.83136 4.02583 3.48622C4.37097 3.14108 4.7827 2.86973 5.23598 2.68866C5.68926 2.5076 6.17462 2.4206 6.66257 2.43296C7.46458 2.43675 8.24808 2.67432 8.91715 3.11657C9.58621 3.55883 10.1118 4.18657 10.4296 4.92296H12.4016C12.716 4.1866 13.2391 3.55842 13.9064 3.11593C14.5737 2.67345 15.3559 2.43602 16.1566 2.43296C16.6447 2.42032 17.1303 2.50712 17.5838 2.68806C18.0373 2.869 18.4493 3.14031 18.7946 3.48548C19.14 3.83065 19.4115 4.24247 19.5927 4.69589C19.7739 5.1493 19.8609 5.63484 19.8486 6.12296C19.8486 9.17196 16.5366 12.178 11.5156 16.723Z" fill="#204F38"/>
</svg>
