<svg width="21" height="24" viewBox="0 0 21 24" fill="none" xmlns="http://www.w3.org/2000/svg">
<path d="M19.9577 22.861V20.503C19.9577 19.2523 19.4609 18.0527 18.5764 17.1683C17.692 16.2839 16.4925 15.787 15.2417 15.787H5.81073C4.55997 15.787 3.36043 16.2839 2.47601 17.1683C1.59159 18.0527 1.09473 19.2523 1.09473 20.503V22.861" stroke="black" stroke-width="2" stroke-linecap="round" stroke-linejoin="round"/>
<path d="M15.2416 6.35601C15.2416 7.28879 14.965 8.20062 14.4467 8.97619C13.9285 9.75175 13.1919 10.3562 12.3301 10.7131C11.4683 11.07 10.52 11.1634 9.60516 10.9813C8.69032 10.7993 7.85001 10.35 7.1905 9.69038C6.531 9.03073 6.08192 8.19033 5.90007 7.27545C5.71821 6.36057 5.81175 5.41231 6.16884 4.55059C6.52594 3.68887 7.13056 2.9524 7.90623 2.43432C8.6819 1.91624 9.59379 1.63982 10.5266 1.64001C11.7773 1.64001 12.9769 2.13688 13.8613 3.0213C14.7457 3.90572 15.2416 5.10525 15.2416 6.35601Z" stroke="black" stroke-width="2" stroke-linecap="round" stroke-linejoin="round"/>
</svg>
