<svg width="24" height="21" viewBox="0 0 24 21" fill="none" xmlns="http://www.w3.org/2000/svg">
<path d="M7.25538 12.375H6.53638C6.15849 12.3753 5.78434 12.45 5.43532 12.5949C5.08631 12.7397 4.76925 12.952 4.50227 13.2194C4.23529 13.4869 4.02361 13.8043 3.87933 14.1536C3.73505 14.5028 3.66099 14.8771 3.66138 15.255V18.119C3.66085 18.8821 3.96342 19.6142 4.50256 20.1543C5.0417 20.6944 5.77326 20.9982 6.53638 20.999H7.25538C7.44436 20.9989 7.63145 20.9615 7.80599 20.8891C7.98053 20.8166 8.13909 20.7105 8.27262 20.5768C8.40615 20.4431 8.51203 20.2844 8.58423 20.1098C8.65642 19.9351 8.69351 19.748 8.69338 19.559V13.815C8.69351 13.626 8.65642 13.4389 8.58423 13.2642C8.51203 13.0896 8.40615 12.9309 8.27262 12.7972C8.13909 12.6635 7.98053 12.5574 7.80599 12.4849C7.63145 12.4125 7.44436 12.3751 7.25538 12.375ZM16.5994 12.375H15.8804C15.4989 12.3755 15.1333 12.5275 14.8638 12.7975C14.5943 13.0676 14.4431 13.4335 14.4434 13.815V19.56C14.4433 19.749 14.4803 19.9361 14.5525 20.1108C14.6247 20.2854 14.7306 20.4441 14.8641 20.5778C14.9977 20.7115 15.1562 20.8176 15.3308 20.8901C15.5053 20.9625 15.6924 20.9999 15.8814 21H16.6004C17.3635 20.9992 18.0951 20.6954 18.6342 20.1553C19.1733 19.6152 19.4759 18.8831 19.4754 18.12V15.255C19.4759 14.4919 19.1733 13.7598 18.6342 13.2197C18.0951 12.6796 17.3635 12.3758 16.6004 12.375H16.5994ZM11.5674 0.875C8.53496 0.931158 5.6424 2.16079 3.49779 4.30541C1.35317 6.45002 0.123541 9.34258 0.0673828 12.375L0.0673828 17.406C0.0673828 17.5004 0.0859803 17.5939 0.122113 17.6811C0.158247 17.7684 0.211208 17.8476 0.277973 17.9144C0.344738 17.9812 0.424 18.0341 0.511233 18.0703C0.598467 18.1064 0.691962 18.125 0.786383 18.125H1.50538C1.5998 18.125 1.6933 18.1064 1.78053 18.0703C1.86777 18.0341 1.94703 17.9812 2.01379 17.9144C2.08056 17.8476 2.13352 17.7684 2.16965 17.6811C2.20579 17.5939 2.22438 17.5004 2.22438 17.406V12.375C2.22438 9.89682 3.20884 7.52013 4.96118 5.76779C6.71352 4.01545 9.0902 3.031 11.5684 3.031C14.0466 3.031 16.4232 4.01545 18.1756 5.76779C19.9279 7.52013 20.9124 9.89682 20.9124 12.375V17.406C20.9124 17.5004 20.931 17.5939 20.9671 17.6811C21.0032 17.7684 21.0562 17.8476 21.123 17.9144C21.1897 17.9812 21.269 18.0341 21.3562 18.0703C21.4435 18.1064 21.537 18.125 21.6314 18.125H22.3504C22.5407 18.1245 22.7231 18.0485 22.8575 17.9137C22.9919 17.7789 23.0674 17.5963 23.0674 17.406V12.375C23.0112 9.34258 21.7816 6.45002 19.637 4.30541C17.4924 2.16079 14.5998 0.931158 11.5674 0.875Z" fill="#204F38"/>
</svg>
