<svg width="33" height="27" viewBox="0 0 33 27" fill="none" xmlns="http://www.w3.org/2000/svg">
<g filter="url(#filter0_d_2_421)">
<path d="M15.961 18.9999C15.7936 18.9996 15.63 18.9498 15.4908 18.8568C15.3517 18.7637 15.2432 18.6315 15.179 18.4769C15.1148 18.3222 15.0979 18.1521 15.1303 17.9878C15.1627 17.8236 15.2429 17.6726 15.361 17.5539L15.511 17.4039C15.5307 17.3842 15.5541 17.3685 15.5798 17.3579C15.6056 17.3472 15.6332 17.3417 15.661 17.3417C15.6889 17.3417 15.7165 17.3472 15.7422 17.3579C15.7679 17.3685 15.7913 17.3842 15.811 17.4039C15.8307 17.4236 15.8463 17.447 15.857 17.4727C15.8677 17.4984 15.8731 17.526 15.8731 17.5539C15.8731 17.5817 15.8677 17.6093 15.857 17.635C15.8463 17.6608 15.8307 17.6842 15.811 17.7039L15.661 17.8539C15.6216 17.8932 15.5903 17.94 15.569 17.9915C15.5476 18.043 15.5366 18.0981 15.5366 18.1539C15.5366 18.2096 15.5476 18.2648 15.569 18.3162C15.5903 18.3677 15.6216 18.4145 15.661 18.4539C15.7418 18.5311 15.8492 18.5742 15.961 18.5742C16.0728 18.5742 16.1802 18.5311 16.261 18.4539L16.411 18.3039C16.4307 18.2842 16.4541 18.2685 16.4798 18.2579C16.5056 18.2472 16.5332 18.2417 16.561 18.2417C16.5889 18.2417 16.6165 18.2472 16.6422 18.2579C16.6679 18.2685 16.6913 18.2842 16.711 18.3039C16.7307 18.3236 16.7463 18.347 16.757 18.3727C16.7677 18.3984 16.7731 18.426 16.7731 18.4539C16.7731 18.4817 16.7677 18.5093 16.757 18.535C16.7463 18.5608 16.7307 18.5842 16.711 18.6039L16.561 18.7539C16.4823 18.8326 16.3887 18.8949 16.2857 18.9371C16.1827 18.9793 16.0723 19.0007 15.961 18.9999Z" fill="#204F38"/>
<path d="M15.063 18.0999C14.8954 18.1001 14.7314 18.0506 14.592 17.9576C14.4525 17.8646 14.3438 17.7324 14.2795 17.5775C14.2153 17.4227 14.1984 17.2523 14.2311 17.0879C14.2637 16.9235 14.3445 16.7724 14.463 16.6539L14.613 16.5039C14.6327 16.4842 14.6561 16.4686 14.6818 16.4579C14.7076 16.4473 14.7351 16.4418 14.763 16.4418C14.7909 16.4418 14.8184 16.4473 14.8442 16.4579C14.8699 16.4686 14.8933 16.4842 14.913 16.5039C14.9327 16.5236 14.9483 16.547 14.959 16.5727C14.9697 16.5985 14.9751 16.6261 14.9751 16.6539C14.9751 16.6818 14.9697 16.7093 14.959 16.7351C14.9483 16.7608 14.9327 16.7842 14.913 16.8039L14.763 16.9539C14.7235 16.9932 14.6921 17.04 14.6707 17.0914C14.6492 17.1429 14.6382 17.1981 14.6382 17.2539C14.6382 17.3097 14.6492 17.3649 14.6707 17.4164C14.6921 17.4679 14.7235 17.5146 14.763 17.5539C14.8439 17.6309 14.9513 17.6739 15.063 17.6739C15.1747 17.6739 15.2821 17.6309 15.363 17.5539L15.513 17.4039C15.5327 17.3842 15.5561 17.3686 15.5818 17.3579C15.6076 17.3473 15.6351 17.3418 15.663 17.3418C15.6909 17.3418 15.7184 17.3473 15.7442 17.3579C15.7699 17.3686 15.7933 17.3842 15.813 17.4039C15.8327 17.4236 15.8483 17.447 15.859 17.4727C15.8697 17.4985 15.8751 17.526 15.8751 17.5539C15.8751 17.5818 15.8697 17.6093 15.859 17.6351C15.8483 17.6608 15.8327 17.6842 15.813 17.7039L15.663 17.8539C15.5843 17.9327 15.4907 17.9952 15.3877 18.0378C15.2848 18.0803 15.1744 18.1021 15.063 18.1019V18.0999Z" fill="#204F38"/>
<path d="M14.1636 17.2009C13.996 17.2011 13.832 17.1516 13.6926 17.0586C13.5531 16.9656 13.4444 16.8334 13.3801 16.6785C13.3159 16.5237 13.299 16.3533 13.3317 16.1889C13.3643 16.0245 13.445 15.8734 13.5636 15.7549L13.7136 15.6049C13.7534 15.5651 13.8073 15.5428 13.8636 15.5428C13.9199 15.5428 13.9738 15.5651 14.0136 15.6049C14.0534 15.6447 14.0757 15.6987 14.0757 15.7549C14.0757 15.8112 14.0534 15.8651 14.0136 15.9049L13.8636 16.0549C13.784 16.1345 13.7393 16.2424 13.7393 16.3549C13.7393 16.4674 13.784 16.5754 13.8636 16.6549C13.9432 16.7345 14.0511 16.7792 14.1636 16.7792C14.2761 16.7792 14.384 16.7345 14.4636 16.6549L14.6136 16.5049C14.6333 16.4852 14.6567 16.4696 14.6824 16.4589C14.7081 16.4483 14.7357 16.4428 14.7636 16.4428C14.7914 16.4428 14.819 16.4483 14.8448 16.4589C14.8705 16.4696 14.8939 16.4852 14.9136 16.5049C14.9333 16.5246 14.9489 16.548 14.9596 16.5737C14.9702 16.5995 14.9757 16.6271 14.9757 16.6549C14.9757 16.6828 14.9702 16.7104 14.9596 16.7361C14.9489 16.7618 14.9333 16.7852 14.9136 16.8049L14.7636 16.9549C14.6848 17.0336 14.5912 17.0959 14.4882 17.1383C14.3853 17.1807 14.2749 17.2013 14.1636 17.2009Z" fill="#204F38"/>
<path d="M13.264 16.3029C13.0966 16.3026 12.933 16.2528 12.7938 16.1598C12.6546 16.0667 12.5461 15.9345 12.482 15.7799C12.4178 15.6253 12.4009 15.4551 12.4332 15.2908C12.4656 15.1266 12.5459 14.9756 12.664 14.8569L12.814 14.7069C12.8337 14.6872 12.8571 14.6716 12.8828 14.6609C12.9085 14.6502 12.9361 14.6448 12.964 14.6448C12.9918 14.6448 13.0194 14.6502 13.0452 14.6609C13.0709 14.6716 13.0943 14.6872 13.114 14.7069C13.1337 14.7266 13.1493 14.75 13.16 14.7757C13.1706 14.8014 13.1761 14.829 13.1761 14.8569C13.1761 14.8847 13.1706 14.9123 13.16 14.9381C13.1493 14.9638 13.1337 14.9872 13.114 15.0069L12.964 15.1569C12.9246 15.1963 12.8933 15.2431 12.872 15.2945C12.8507 15.346 12.8397 15.4012 12.8397 15.4569C12.8397 15.5126 12.8507 15.5678 12.872 15.6192C12.8933 15.6707 12.9246 15.7175 12.964 15.7569C13.0034 15.7963 13.0501 15.8275 13.1016 15.8489C13.1531 15.8702 13.2083 15.8811 13.264 15.8811C13.3197 15.8811 13.3749 15.8702 13.4263 15.8489C13.4778 15.8275 13.5246 15.7963 13.564 15.7569L13.714 15.6069C13.7538 15.5671 13.8077 15.5448 13.864 15.5448C13.9202 15.5448 13.9742 15.5671 14.014 15.6069C14.0538 15.6467 14.0761 15.7006 14.0761 15.7569C14.0761 15.8131 14.0538 15.8671 14.014 15.9069L13.864 16.0569C13.7852 16.1357 13.6916 16.1981 13.5887 16.2407C13.4857 16.2832 13.3754 16.305 13.264 16.3049V16.3029ZM9.96898 12.0729C9.91275 12.0728 9.85883 12.0505 9.81898 12.0109L5.77698 7.96689C5.75728 7.94719 5.74165 7.9238 5.73099 7.89807C5.72033 7.87233 5.71484 7.84474 5.71484 7.81688C5.71484 7.76062 5.73719 7.70667 5.77698 7.66689C5.81676 7.6271 5.87071 7.60475 5.92698 7.60475C5.98324 7.60475 6.03719 7.6271 6.07698 7.66689L9.97098 11.5609L13.564 7.96689L9.66998 4.07289C9.63019 4.0331 9.60784 3.97915 9.60784 3.92289C9.60784 3.86662 9.63019 3.81267 9.66998 3.77289C9.70976 3.7331 9.76371 3.71075 9.81998 3.71075C9.87624 3.71075 9.93019 3.7331 9.96998 3.77289L14.014 7.81589C14.0337 7.83558 14.0493 7.85896 14.06 7.8847C14.0707 7.91044 14.0762 7.93802 14.0762 7.96589C14.0762 7.99375 14.0707 8.02134 14.06 8.04708C14.0493 8.07281 14.0337 8.0962 14.014 8.11589L10.12 12.0159C10.0794 12.0539 10.0245 12.0744 9.96898 12.0729Z" fill="#204F38"/>
<path d="M8.17257 10.2769C8.11635 10.2768 8.06243 10.2545 8.02257 10.2149L4.12957 6.32088C4.10986 6.30119 4.09422 6.27781 4.08355 6.25207C4.07288 6.22634 4.06738 6.19875 4.06738 6.17088C4.06738 6.14302 4.07288 6.11543 4.08355 6.08969C4.09422 6.06396 4.10986 6.04057 4.12957 6.02088L8.02357 2.12688C8.04326 2.10717 8.06664 2.09153 8.09238 2.08086C8.11812 2.07019 8.14571 2.0647 8.17357 2.0647C8.20143 2.0647 8.22902 2.07019 8.25476 2.08086C8.2805 2.09153 8.30388 2.10717 8.32357 2.12688L12.2176 6.02088C12.2373 6.04057 12.2529 6.06396 12.2636 6.08969C12.2743 6.11543 12.2798 6.14302 12.2798 6.17088C12.2798 6.19875 12.2743 6.22634 12.2636 6.25207C12.2529 6.27781 12.2373 6.30119 12.2176 6.32088L8.32257 10.2149C8.3029 10.2346 8.27951 10.2502 8.25377 10.2609C8.22802 10.2715 8.20043 10.277 8.17257 10.2769ZM4.57857 6.17088L8.17257 9.76488L11.7676 6.17088L8.17257 2.57688L4.57857 6.17088ZM11.1626 12.6709C11.1063 12.6708 11.0524 12.6485 11.0126 12.6089L10.1126 11.7089C10.0929 11.6892 10.0772 11.6658 10.0665 11.6401C10.0559 11.6143 10.0504 11.5867 10.0504 11.5589C10.0504 11.531 10.0559 11.5034 10.0665 11.4777C10.0772 11.452 10.0929 11.4286 10.1126 11.4089L13.4046 8.11188C13.4243 8.09217 13.4476 8.07653 13.4734 8.06586C13.4991 8.05519 13.5267 8.0497 13.5546 8.0497C13.5824 8.0497 13.61 8.05519 13.6358 8.06586C13.6615 8.07653 13.6849 8.09217 13.7046 8.11188L14.6046 9.01188C14.6243 9.03157 14.6399 9.05496 14.6506 9.0807C14.6613 9.10643 14.6668 9.13402 14.6668 9.16188C14.6668 9.18975 14.6613 9.21734 14.6506 9.24307C14.6399 9.26881 14.6243 9.2922 14.6046 9.31188L11.3096 12.6069C11.2695 12.6461 11.2156 12.668 11.1596 12.6679L11.1626 12.6709ZM10.5626 11.5609L11.1626 12.1609L14.1626 9.16088L13.5626 8.56088L10.5676 11.5609H10.5626Z" fill="#204F38"/>
<path d="M15.9606 18.0649C15.9044 18.0648 15.8505 18.0425 15.8106 18.0029L11.0186 13.2099C10.9594 13.1508 10.9125 13.0807 10.8805 13.0035C10.8485 12.9262 10.832 12.8435 10.832 12.7599C10.832 12.6763 10.8485 12.5935 10.8805 12.5163C10.9125 12.4391 10.9594 12.369 11.0186 12.3099L14.3136 9.01488C14.3333 8.99517 14.3567 8.97953 14.3824 8.96886C14.4081 8.95819 14.4357 8.9527 14.4636 8.9527C14.4915 8.9527 14.519 8.95819 14.5448 8.96886C14.5705 8.97953 14.5939 8.99517 14.6136 9.01488L15.1506 9.55188H16.2616C16.3178 9.55194 16.3717 9.57423 16.4116 9.61388L16.7116 9.91388C16.7313 9.93358 16.7469 9.95697 16.7576 9.9827C16.7682 10.0084 16.7737 10.036 16.7737 10.0639C16.7737 10.0917 16.7682 10.1193 16.7576 10.1451C16.7469 10.1708 16.7313 10.1942 16.7116 10.2139C16.6919 10.2336 16.6685 10.2492 16.6428 10.2599C16.617 10.2705 16.5894 10.276 16.5616 10.276C16.5337 10.276 16.5061 10.2705 16.4804 10.2599C16.4547 10.2492 16.4313 10.2336 16.4116 10.2139L16.1736 9.97588H15.0626C15.0347 9.97591 15.0072 9.97045 14.9814 9.95981C14.9557 9.94917 14.9323 9.93356 14.9126 9.91388L14.4636 9.46488L11.3186 12.6099C11.279 12.6498 11.2568 12.7037 11.2568 12.7599C11.2568 12.8161 11.279 12.87 11.3186 12.9099L16.1116 17.7019C16.1413 17.7315 16.1615 17.7693 16.1697 17.8105C16.1779 17.8516 16.1737 17.8943 16.1576 17.933C16.1416 17.9718 16.1144 18.0049 16.0795 18.0282C16.0446 18.0515 16.0035 18.0639 15.9616 18.0639L15.9606 18.0649Z" fill="#204F38"/>
<path d="M17.1585 19.0029C17.0471 19.0032 16.9367 18.9814 16.8337 18.9389C16.7307 18.8963 16.6372 18.8338 16.5585 18.7549L15.5055 17.6969C15.4657 17.6571 15.4434 17.6031 15.4434 17.5469C15.4434 17.4906 15.4657 17.4366 15.5055 17.3969C15.5453 17.3571 15.5992 17.3347 15.6555 17.3347C15.7118 17.3347 15.7657 17.3571 15.8055 17.3969L16.8605 18.4509C16.8999 18.4903 16.9467 18.5215 16.9981 18.5428C17.0496 18.5642 17.1048 18.5751 17.1605 18.5751C17.2162 18.5751 17.2714 18.5642 17.3228 18.5428C17.3743 18.5215 17.4211 18.4903 17.4605 18.4509C17.4999 18.4115 17.5311 18.3647 17.5525 18.3132C17.5738 18.2618 17.5848 18.2066 17.5848 18.1509C17.5848 18.0952 17.5738 18.04 17.5525 17.9885C17.5311 17.937 17.4999 17.8903 17.4605 17.8509L16.4035 16.8029C16.3838 16.7832 16.3682 16.7598 16.3575 16.734C16.3468 16.7083 16.3414 16.6807 16.3414 16.6529C16.3414 16.625 16.3468 16.5974 16.3575 16.5717C16.3682 16.546 16.3838 16.5226 16.4035 16.5029C16.4232 16.4832 16.4466 16.4675 16.4723 16.4569C16.498 16.4462 16.5256 16.4407 16.5535 16.4407C16.5813 16.4407 16.6089 16.4462 16.6347 16.4569C16.6604 16.4675 16.6838 16.4832 16.7035 16.5029L17.7585 17.5579C17.8775 17.6762 17.9587 17.8273 17.9916 17.9918C18.0246 18.1564 18.0078 18.3271 17.9435 18.4821C17.8792 18.6371 17.7702 18.7695 17.6304 18.8624C17.4906 18.9553 17.3263 19.0036 17.1585 19.0029Z" fill="#204F38"/>
<path d="M18.0571 18.1019C17.9457 18.1024 17.8352 18.0808 17.7322 18.0382C17.6292 17.9956 17.5357 17.933 17.4571 17.8539L16.1031 16.4999C16.0634 16.4601 16.041 16.4061 16.041 16.3499C16.041 16.2936 16.0634 16.2397 16.1031 16.1999C16.1429 16.1601 16.1969 16.1377 16.2531 16.1377C16.3094 16.1377 16.3634 16.1601 16.4031 16.1999L17.7571 17.5539C17.8379 17.6311 17.9454 17.6743 18.0571 17.6743C18.1689 17.6743 18.2764 17.6311 18.3571 17.5539C18.3966 17.5145 18.4279 17.4677 18.4492 17.4163C18.4705 17.3648 18.4815 17.3096 18.4815 17.2539C18.4815 17.1982 18.4705 17.143 18.4492 17.0915C18.4279 17.04 18.3966 16.9933 18.3571 16.9539L17.3021 15.8989C17.2624 15.8591 17.24 15.8051 17.24 15.7489C17.24 15.6926 17.2624 15.6387 17.3021 15.5989C17.3419 15.5591 17.3959 15.5367 17.4521 15.5367C17.5084 15.5367 17.5624 15.5591 17.6021 15.5989L18.6571 16.6539C18.7757 16.7724 18.8564 16.9234 18.8891 17.0878C18.9217 17.2522 18.9049 17.4227 18.8406 17.5775C18.7764 17.7323 18.6676 17.8646 18.5282 17.9576C18.3887 18.0506 18.2248 18.1001 18.0571 18.0999V18.1019Z" fill="#204F38"/>
<path d="M18.9566 17.2019C18.8452 17.2023 18.7349 17.1807 18.6319 17.1383C18.5289 17.0959 18.4353 17.0336 18.3566 16.9549L17.0026 15.6009C16.9829 15.5812 16.9672 15.5578 16.9566 15.532C16.9459 15.5063 16.9404 15.4787 16.9404 15.4509C16.9404 15.423 16.9459 15.3954 16.9566 15.3697C16.9672 15.3439 16.9829 15.3206 17.0026 15.3009C17.0223 15.2812 17.0456 15.2655 17.0714 15.2549C17.0971 15.2442 17.1247 15.2387 17.1526 15.2387C17.1804 15.2387 17.208 15.2442 17.2337 15.2549C17.2595 15.2655 17.2829 15.2812 17.3026 15.3009L18.6566 16.6549C18.7361 16.7344 18.844 16.7791 18.9566 16.7791C19.0691 16.7791 19.177 16.7344 19.2566 16.6549C19.3361 16.5753 19.3808 16.4674 19.3808 16.3549C19.3808 16.2423 19.3361 16.1344 19.2566 16.0549L18.2016 15.0009C18.1819 14.9812 18.1662 14.9578 18.1556 14.932C18.1449 14.9063 18.1394 14.8787 18.1394 14.8509C18.1394 14.823 18.1449 14.7954 18.1556 14.7697C18.1662 14.744 18.1819 14.7206 18.2016 14.7009C18.2213 14.6812 18.2446 14.6655 18.2704 14.6549C18.2961 14.6442 18.3237 14.6387 18.3516 14.6387C18.3794 14.6387 18.407 14.6442 18.4327 14.6549C18.4585 14.6655 18.4819 14.6812 18.5016 14.7009L19.5566 15.7549C19.6751 15.8734 19.7558 16.0244 19.7885 16.1888C19.8211 16.3532 19.8043 16.5237 19.74 16.6785C19.6758 16.8333 19.5671 16.9656 19.4276 17.0586C19.2881 17.1516 19.1242 17.2021 18.9566 17.2019Z" fill="#204F38"/>
<path d="M19.8548 16.3039C19.7434 16.3044 19.6329 16.2828 19.5299 16.2402C19.4269 16.1976 19.3334 16.135 19.2548 16.0559L17.9008 14.7019C17.861 14.6621 17.8387 14.6081 17.8387 14.5519C17.8387 14.4956 17.861 14.4417 17.9008 14.4019C17.9406 14.3621 17.9946 14.3397 18.0508 14.3397C18.1071 14.3397 18.161 14.3621 18.2008 14.4019L19.5548 15.7559C19.6355 15.8334 19.743 15.8766 19.8548 15.8766C19.9667 15.8766 20.0742 15.8334 20.1548 15.7559C20.1944 15.7166 20.2257 15.6698 20.2472 15.6183C20.2686 15.5668 20.2796 15.5116 20.2796 15.4559C20.2796 15.4001 20.2686 15.3449 20.2472 15.2934C20.2257 15.2419 20.1944 15.1952 20.1548 15.1559L16.7038 11.7089C16.6841 11.6892 16.6685 11.6658 16.6578 11.6401C16.6472 11.6143 16.6417 11.5867 16.6417 11.5589C16.6417 11.531 16.6472 11.5034 16.6578 11.4777C16.6685 11.452 16.6841 11.4286 16.7038 11.4089C16.7235 11.3892 16.7469 11.3736 16.7726 11.3629C16.7984 11.3522 16.826 11.3467 16.8538 11.3467C16.8817 11.3467 16.9093 11.3522 16.935 11.3629C16.9607 11.3736 16.9841 11.3892 17.0038 11.4089L20.4548 14.8599C20.5734 14.9784 20.6541 15.1294 20.6867 15.2938C20.7194 15.4583 20.7025 15.6287 20.6383 15.7835C20.5741 15.9383 20.4653 16.0706 20.3258 16.1636C20.1864 16.2566 20.0224 16.3061 19.8548 16.3059V16.3039ZM9.96081 10.6909C9.82464 10.6906 9.69217 10.6465 9.58294 10.5652C9.47372 10.4839 9.39353 10.3696 9.3542 10.2393C9.31488 10.1089 9.31851 9.96932 9.36455 9.84117C9.41059 9.71302 9.49661 9.60306 9.60991 9.52752C9.72322 9.45199 9.8578 9.41488 9.9938 9.42167C10.1298 9.42845 10.26 9.47878 10.3652 9.56522C10.4705 9.65167 10.5451 9.76964 10.5782 9.90174C10.6112 10.0338 10.6009 10.1731 10.5488 10.2989C10.5006 10.415 10.419 10.5142 10.3143 10.5838C10.2096 10.6534 10.0865 10.6914 9.96081 10.6909ZM9.96081 9.84387C9.91846 9.84147 9.87635 9.85184 9.83995 9.87362C9.80354 9.89541 9.77451 9.92762 9.75661 9.96609C9.73871 10.0046 9.73276 10.0475 9.73953 10.0894C9.74631 10.1313 9.76549 10.1702 9.79461 10.201C9.82372 10.2319 9.86142 10.2533 9.90284 10.2625C9.94426 10.2717 9.98748 10.2683 10.0269 10.2526C10.0664 10.237 10.1002 10.2099 10.1241 10.1748C10.148 10.1397 10.1607 10.0983 10.1608 10.0559C10.1609 10.0017 10.1402 9.94949 10.103 9.91006C10.0658 9.87063 10.0149 9.84694 9.96081 9.84387ZM22.8508 12.3729C22.7946 12.3728 22.7407 12.3505 22.7008 12.3109L18.8068 8.41688C18.7871 8.39719 18.7715 8.3738 18.7608 8.34806C18.7501 8.32233 18.7446 8.29474 18.7446 8.26687C18.7446 8.23901 18.7501 8.21142 18.7608 8.18568C18.7715 8.15995 18.7871 8.13656 18.8068 8.11687L22.8508 4.07287C22.8705 4.05318 22.8939 4.03755 22.9196 4.02689C22.9454 4.01623 22.973 4.01074 23.0008 4.01074C23.0287 4.01074 23.0563 4.01623 23.082 4.02689C23.1077 4.03755 23.1311 4.05318 23.1508 4.07287C23.1705 4.09257 23.1861 4.11596 23.1968 4.1417C23.2075 4.16743 23.2129 4.19502 23.2129 4.22288C23.2129 4.25073 23.2075 4.27832 23.1968 4.30405C23.1861 4.32979 23.1705 4.35318 23.1508 4.37288L19.2568 8.26687L22.8508 11.8609L26.7448 7.96688C26.7645 7.94718 26.7879 7.93155 26.8136 7.92089C26.8394 7.91023 26.867 7.90474 26.8948 7.90474C26.9227 7.90474 26.9503 7.91023 26.976 7.92089C27.0017 7.93155 27.0251 7.94718 27.0448 7.96688C27.0645 7.98657 27.0801 8.00996 27.0908 8.0357C27.1015 8.06143 27.1069 8.08902 27.1069 8.11687C27.1069 8.14473 27.1015 8.17232 27.0908 8.19805C27.0801 8.22379 27.0645 8.24718 27.0448 8.26687L22.9998 12.3089C22.9804 12.3291 22.9571 12.3451 22.9313 12.3561C22.9055 12.3671 22.8788 12.3728 22.8508 12.3729Z" fill="#204F38"/>
<path d="M24.6476 10.5759C24.5913 10.5758 24.5374 10.5535 24.4976 10.5139L20.6036 6.6199C20.5838 6.60021 20.5682 6.57682 20.5575 6.55109C20.5469 6.52535 20.5414 6.49776 20.5414 6.4699C20.5414 6.44203 20.5469 6.41444 20.5575 6.38871C20.5682 6.36297 20.5838 6.33958 20.6036 6.31989L24.4976 2.4259C24.5172 2.40618 24.5406 2.39054 24.5664 2.37987C24.5921 2.3692 24.6197 2.36371 24.6476 2.36371C24.6754 2.36371 24.703 2.3692 24.7287 2.37987C24.7545 2.39054 24.7779 2.40618 24.7976 2.4259L28.6916 6.31989C28.7113 6.33958 28.7269 6.36297 28.7376 6.38871C28.7483 6.41444 28.7537 6.44203 28.7537 6.4699C28.7537 6.49776 28.7483 6.52535 28.7376 6.55109C28.7269 6.57682 28.7113 6.60021 28.6916 6.6199L24.7976 10.5139C24.7779 10.5336 24.7545 10.5493 24.7288 10.5599C24.703 10.5705 24.6754 10.576 24.6476 10.5759ZM21.0536 6.4699L24.6476 10.0639L28.2416 6.4699L24.6476 2.8759L21.0536 6.4699ZM21.6586 12.9699C21.6023 12.9698 21.5484 12.9475 21.5086 12.9079L18.2136 9.6089C18.1938 9.58921 18.1782 9.56582 18.1675 9.54008C18.1569 9.51435 18.1514 9.48676 18.1514 9.45889C18.1514 9.43103 18.1569 9.40344 18.1675 9.37771C18.1782 9.35197 18.1938 9.32858 18.2136 9.3089L19.1136 8.4089C19.1332 8.38918 19.1566 8.37354 19.1824 8.36287C19.2081 8.3522 19.2357 8.34671 19.2636 8.34671C19.2914 8.34671 19.319 8.3522 19.3447 8.36287C19.3705 8.37354 19.3939 8.38918 19.4136 8.4089L22.7086 11.7039C22.7283 11.7236 22.7439 11.747 22.7546 11.7727C22.7652 11.7984 22.7707 11.826 22.7707 11.8539C22.7707 11.8818 22.7652 11.9093 22.7546 11.9351C22.7439 11.9608 22.7283 11.9842 22.7086 12.0039L21.8086 12.9039C21.7888 12.9236 21.7655 12.9392 21.7397 12.9498C21.714 12.9605 21.6864 12.9659 21.6586 12.9659V12.9699ZM18.6586 9.4629L21.6586 12.4629L22.2586 11.8629L19.2586 8.8629L18.6586 9.4629Z" fill="#204F38"/>
<path d="M20.1541 15.0729C20.1124 15.0727 20.0716 15.0603 20.0369 15.037C20.0022 15.0138 19.9752 14.9808 19.9591 14.9422C19.9431 14.9037 19.9388 14.8613 19.9468 14.8203C19.9548 14.7793 19.9748 14.7416 20.0041 14.7119L21.5041 13.2119C21.5239 13.1923 21.5397 13.1689 21.5504 13.1432C21.5612 13.1174 21.5667 13.0898 21.5667 13.0619C21.5667 13.034 21.5612 13.0064 21.5504 12.9806C21.5397 12.9549 21.5239 12.9315 21.5041 12.9119L18.3591 9.7669L17.9101 10.2159C17.8904 10.2356 17.867 10.2512 17.8413 10.2618C17.8155 10.2725 17.788 10.2779 17.7601 10.2779H16.6481L14.6131 12.3129C14.5934 12.3326 14.57 12.3482 14.5443 12.3589C14.5186 12.3695 14.491 12.375 14.4631 12.375C14.4353 12.375 14.4077 12.3695 14.3819 12.3589C14.3562 12.3482 14.3328 12.3326 14.3131 12.3129C14.2934 12.2932 14.2778 12.2698 14.2671 12.2441C14.2565 12.2183 14.251 12.1908 14.251 12.1629C14.251 12.135 14.2565 12.1075 14.2671 12.0817C14.2778 12.056 14.2934 12.0326 14.3131 12.0129L16.4131 9.9129C16.4328 9.89322 16.4562 9.87761 16.4819 9.86698C16.5077 9.85634 16.5353 9.85088 16.5631 9.8509H17.6741L18.2111 9.3139C18.2516 9.2755 18.3053 9.25409 18.3611 9.25409C18.4169 9.25409 18.4706 9.2755 18.5111 9.3139L21.8061 12.6139C21.8653 12.673 21.9122 12.7431 21.9442 12.8203C21.9762 12.8975 21.9927 12.9803 21.9927 13.0639C21.9927 13.1475 21.9762 13.2303 21.9442 13.3075C21.9122 13.3847 21.8653 13.4548 21.8061 13.5139L20.3061 15.0139C20.2661 15.0533 20.2122 15.0752 20.1561 15.0749L20.1541 15.0729ZM22.8591 10.9939C22.7122 10.9937 22.5699 10.9425 22.4564 10.8491C22.343 10.7557 22.2655 10.6259 22.2371 10.4817C22.2087 10.3376 22.2311 10.188 22.3006 10.0586C22.3701 9.92911 22.4823 9.82776 22.6182 9.77178C22.754 9.71581 22.9051 9.70868 23.0456 9.7516C23.1861 9.79453 23.3074 9.88486 23.3888 10.0072C23.4702 10.1295 23.5066 10.2763 23.4919 10.4225C23.4772 10.5687 23.4122 10.7052 23.3081 10.8089C23.1889 10.9276 23.0274 10.9942 22.8591 10.9939ZM22.7091 10.5089C22.7388 10.5385 22.7765 10.5587 22.8177 10.5668C22.8588 10.575 22.9014 10.5708 22.9401 10.5547C22.9788 10.5387 23.0119 10.5115 23.0352 10.4767C23.0585 10.4418 23.0709 10.4008 23.0709 10.3589C23.0709 10.317 23.0585 10.276 23.0352 10.2411C23.0119 10.2063 22.9788 10.1791 22.9401 10.1631C22.9014 10.147 22.8588 10.1428 22.8177 10.151C22.7765 10.1591 22.7388 10.1793 22.7091 10.2089C22.6708 10.2484 22.6494 10.3013 22.6494 10.3564C22.6494 10.4115 22.6708 10.4644 22.7091 10.5039V10.5089Z" fill="#204F38"/>
<path d="M15.3552 12.7389C15.1605 12.7394 14.9676 12.7013 14.7877 12.6268C14.6079 12.5523 14.4445 12.4429 14.3072 12.3049C14.2875 12.2852 14.2719 12.2618 14.2612 12.2361C14.2505 12.2103 14.2451 12.1828 14.2451 12.1549C14.2451 12.127 14.2505 12.0995 14.2612 12.0737C14.2719 12.048 14.2875 12.0246 14.3072 12.0049C14.3269 11.9852 14.3503 11.9696 14.376 11.9589C14.4018 11.9482 14.4293 11.9428 14.4572 11.9428C14.4851 11.9428 14.5126 11.9482 14.5384 11.9589C14.5641 11.9696 14.5875 11.9852 14.6072 12.0049C14.809 12.1983 15.0777 12.3062 15.3572 12.3062C15.6367 12.3062 15.9054 12.1983 16.1072 12.0049L17.0072 11.1049C17.0269 11.0852 17.0503 11.0696 17.076 11.0589C17.1018 11.0482 17.1293 11.0428 17.1572 11.0428C17.1851 11.0428 17.2126 11.0482 17.2384 11.0589C17.2641 11.0696 17.2875 11.0852 17.3072 11.1049C17.3269 11.1246 17.3425 11.148 17.3532 11.1737C17.3638 11.1995 17.3693 11.227 17.3693 11.2549C17.3693 11.2828 17.3638 11.3103 17.3532 11.3361C17.3425 11.3618 17.3269 11.3852 17.3072 11.4049L16.4072 12.3049C16.2699 12.4429 16.1065 12.5523 15.9266 12.6268C15.7468 12.7013 15.5539 12.7394 15.3592 12.7389H15.3552ZM21.2812 5.98989C21.225 5.98989 21.171 5.96756 21.1313 5.9278C21.0915 5.88804 21.0692 5.83412 21.0692 5.77789V3.17789L16.4092 0.487894L11.7492 3.17789V5.63789C11.7492 5.69412 11.7269 5.74804 11.6871 5.7878C11.6473 5.82756 11.5934 5.84989 11.5372 5.84989C11.481 5.84989 11.427 5.82756 11.3873 5.7878C11.3475 5.74804 11.3252 5.69412 11.3252 5.63789V3.05989C11.3252 3.02276 11.335 2.98629 11.3536 2.95415C11.3722 2.92202 11.399 2.89537 11.4312 2.87689L16.3032 0.0638943C16.3355 0.0453847 16.372 0.0356445 16.4092 0.0356445C16.4464 0.0356445 16.4829 0.0453847 16.5152 0.0638943L21.3872 2.87689C21.4194 2.89537 21.4462 2.92202 21.4648 2.95415C21.4834 2.98629 21.4932 3.02276 21.4932 3.05989V5.77789C21.4932 5.80573 21.4877 5.8333 21.4771 5.85902C21.4664 5.88474 21.4508 5.90811 21.4311 5.9278C21.4114 5.94749 21.388 5.9631 21.3623 5.97376C21.3366 5.98441 21.309 5.98989 21.2812 5.98989Z" fill="#204F38"/>
<path d="M14.0902 4.77091C14.053 4.77117 14.0164 4.76151 13.9842 4.74291L11.4452 3.27691C11.4202 3.26343 11.3983 3.24509 11.3805 3.22297C11.3628 3.20084 11.3497 3.1754 11.342 3.14812C11.3343 3.12085 11.3321 3.09231 11.3356 3.06418C11.3391 3.03605 11.3482 3.00892 11.3624 2.98438C11.3766 2.95983 11.3955 2.93838 11.4182 2.92129C11.4408 2.9042 11.4666 2.89182 11.4941 2.88487C11.5215 2.87793 11.5501 2.87657 11.5781 2.88087C11.6062 2.88517 11.633 2.89504 11.6572 2.90991L14.1962 4.37591C14.2389 4.39811 14.2729 4.43423 14.2924 4.47831C14.3119 4.52238 14.3158 4.57179 14.3034 4.61838C14.2911 4.66497 14.2632 4.70596 14.2245 4.73459C14.1857 4.76323 14.1383 4.7778 14.0902 4.77591V4.77091ZM18.7282 4.71891C18.68 4.7208 18.6326 4.70623 18.5939 4.6776C18.5551 4.64896 18.5272 4.60797 18.5149 4.56138C18.5026 4.51479 18.5065 4.46538 18.5259 4.4213C18.5454 4.37723 18.5794 4.34111 18.6222 4.31891L21.1302 2.87091C21.1787 2.84466 21.2356 2.83838 21.2887 2.8534C21.3418 2.86843 21.387 2.90357 21.4146 2.95136C21.4422 2.99915 21.45 3.05582 21.4365 3.10933C21.423 3.16284 21.3892 3.20896 21.3422 3.23791L18.8332 4.69191C18.8012 4.71008 18.7649 4.7194 18.7282 4.71891ZM16.4082 8.75691C16.3519 8.75691 16.298 8.73457 16.2583 8.69481C16.2185 8.65506 16.1962 8.60113 16.1962 8.54491V3.20991C16.1962 3.18207 16.2016 3.1545 16.2123 3.12878C16.223 3.10306 16.2386 3.07969 16.2583 3.06C16.2779 3.04032 16.3013 3.0247 16.327 3.01405C16.3528 3.00339 16.3803 2.99791 16.4082 2.99791C16.436 2.99791 16.4636 3.00339 16.4893 3.01405C16.515 3.0247 16.5384 3.04032 16.5581 3.06C16.5778 3.07969 16.5934 3.10306 16.604 3.12878C16.6147 3.1545 16.6202 3.18207 16.6202 3.20991V8.54491C16.6202 8.60113 16.5978 8.65506 16.5581 8.69481C16.5183 8.73457 16.4644 8.75691 16.4082 8.75691Z" fill="#204F38"/>
<path d="M16.7753 5.97289H16.0753C15.8036 5.97289 15.543 5.86495 15.3509 5.67282C15.1587 5.48069 15.0508 5.2201 15.0508 4.94839C15.0508 4.67667 15.1587 4.41609 15.3509 4.22396C15.543 4.03183 15.8036 3.92389 16.0753 3.92389H17.5673C17.5951 3.92389 17.6227 3.92937 17.6484 3.94003C17.6741 3.95068 17.6975 3.96629 17.7172 3.98598C17.7369 4.00567 17.7525 4.02904 17.7631 4.05476C17.7738 4.08048 17.7793 4.10805 17.7793 4.13589C17.7793 4.16373 17.7738 4.1913 17.7631 4.21702C17.7525 4.24274 17.7369 4.26611 17.7172 4.2858C17.6975 4.30548 17.6741 4.3211 17.6484 4.33175C17.6227 4.3424 17.5951 4.34789 17.5673 4.34789H16.0753C15.9162 4.34789 15.7635 4.4111 15.651 4.52362C15.5385 4.63615 15.4753 4.78876 15.4753 4.94789C15.4753 5.10702 15.5385 5.25963 15.651 5.37215C15.7635 5.48467 15.9162 5.54789 16.0753 5.54789H16.7753C16.8315 5.54789 16.8854 5.57022 16.9252 5.60998C16.9649 5.64974 16.9873 5.70366 16.9873 5.75989C16.9873 5.81611 16.9649 5.87004 16.9252 5.9098C16.8854 5.94955 16.8315 5.97189 16.7753 5.97189V5.97289Z" fill="#204F38"/>
<path d="M16.755 7.59387H15.255C15.1987 7.59387 15.1448 7.57154 15.1051 7.53178C15.0653 7.49202 15.043 7.4381 15.043 7.38187C15.043 7.32565 15.0653 7.27172 15.1051 7.23196C15.1448 7.19221 15.1987 7.16987 15.255 7.16987H16.755C16.9141 7.16987 17.0667 7.10666 17.1792 6.99414C17.2918 6.88161 17.355 6.729 17.355 6.56987C17.355 6.41074 17.2918 6.25813 17.1792 6.14561C17.0667 6.03309 16.9141 5.96987 16.755 5.96987H16.292C16.2357 5.96987 16.1818 5.94754 16.1421 5.90778C16.1023 5.86802 16.08 5.8141 16.08 5.75787C16.08 5.70165 16.1023 5.64772 16.1421 5.60797C16.1818 5.56821 16.2357 5.54587 16.292 5.54587H16.755C17.026 5.54587 17.286 5.65355 17.4776 5.84521C17.6693 6.03687 17.777 6.29682 17.777 6.56787C17.777 6.83892 17.6693 7.09887 17.4776 7.29054C17.286 7.4822 17.026 7.58987 16.755 7.58987V7.59387ZM16.411 2.60087C16.2854 2.60087 16.1626 2.56363 16.0582 2.49385C15.9538 2.42408 15.8724 2.32491 15.8243 2.20888C15.7762 2.09284 15.7637 1.96517 15.7882 1.84199C15.8127 1.71881 15.8731 1.60566 15.962 1.51686C16.0508 1.42805 16.1639 1.36757 16.2871 1.34307C16.4103 1.31857 16.5379 1.33115 16.654 1.37921C16.77 1.42727 16.8692 1.50866 16.939 1.61308C17.0087 1.71751 17.046 1.84028 17.046 1.96587C17.0457 2.1342 16.9787 2.29556 16.8597 2.41459C16.7407 2.53362 16.5793 2.60061 16.411 2.60087ZM16.411 1.75387C16.369 1.75387 16.3281 1.7663 16.2932 1.7896C16.2583 1.81289 16.2312 1.84601 16.2151 1.88474C16.1991 1.92348 16.1949 1.96611 16.203 2.00723C16.2112 2.04836 16.2314 2.08613 16.2611 2.11578C16.2907 2.14543 16.3285 2.16562 16.3696 2.1738C16.4107 2.18198 16.4534 2.17778 16.4921 2.16173C16.5308 2.14569 16.5639 2.11852 16.5872 2.08365C16.6105 2.04879 16.623 2.0078 16.623 1.96587C16.6219 1.91034 16.5991 1.85744 16.5595 1.81854C16.5198 1.77965 16.4665 1.75786 16.411 1.75787V1.75387Z" fill="#204F38"/>
<path d="M12.8184 6.8369C12.9355 6.8369 13.0304 6.74199 13.0304 6.6249C13.0304 6.50782 12.9355 6.4129 12.8184 6.4129C12.7014 6.4129 12.6064 6.50782 12.6064 6.6249C12.6064 6.74199 12.7014 6.8369 12.8184 6.8369Z" fill="#204F38"/>
<path d="M20.0196 6.8369C20.1367 6.8369 20.2316 6.74199 20.2316 6.6249C20.2316 6.50782 20.1367 6.4129 20.0196 6.4129C19.9025 6.4129 19.8076 6.50782 19.8076 6.6249C19.8076 6.74199 19.9025 6.8369 20.0196 6.8369Z" fill="#204F38"/>
<path d="M12.8184 5.98992C12.9355 5.98992 13.0304 5.895 13.0304 5.77792C13.0304 5.66083 12.9355 5.56592 12.8184 5.56592C12.7014 5.56592 12.6064 5.66083 12.6064 5.77792C12.6064 5.895 12.7014 5.98992 12.8184 5.98992Z" fill="#204F38"/>
<path d="M12.8184 5.14287C12.9355 5.14287 13.0304 5.04796 13.0304 4.93087C13.0304 4.81379 12.9355 4.71887 12.8184 4.71887C12.7014 4.71887 12.6064 4.81379 12.6064 4.93087C12.6064 5.04796 12.7014 5.14287 12.8184 5.14287Z" fill="#204F38"/>
<path d="M20.0196 5.98992C20.1367 5.98992 20.2316 5.895 20.2316 5.77792C20.2316 5.66083 20.1367 5.56592 20.0196 5.56592C19.9025 5.56592 19.8076 5.66083 19.8076 5.77792C19.8076 5.895 19.9025 5.98992 20.0196 5.98992Z" fill="#204F38"/>
<path d="M20.0196 5.14287C20.1367 5.14287 20.2316 5.04796 20.2316 4.93087C20.2316 4.81379 20.1367 4.71887 20.0196 4.71887C19.9025 4.71887 19.8076 4.81379 19.8076 4.93087C19.8076 5.04796 19.9025 5.14287 20.0196 5.14287Z" fill="#204F38"/>
<path d="M13.8836 3.47548C13.9851 3.41705 14.0199 3.28743 13.9615 3.18597C13.9031 3.08451 13.7735 3.04963 13.672 3.10806C13.5705 3.1665 13.5357 3.29612 13.5941 3.39758C13.6525 3.49904 13.7821 3.53392 13.8836 3.47548Z" fill="#204F38"/>
<path d="M14.618 3.05251C14.7194 2.99408 14.7543 2.86446 14.6959 2.76299C14.6374 2.66153 14.5078 2.62665 14.4064 2.68509C14.3049 2.74352 14.27 2.87314 14.3285 2.9746C14.3869 3.07606 14.5165 3.11094 14.618 3.05251Z" fill="#204F38"/>
<path d="M15.3524 2.62954C15.4538 2.5711 15.4887 2.44148 15.4303 2.34002C15.3718 2.23856 15.2422 2.20368 15.1407 2.26212C15.0393 2.32055 15.0044 2.45017 15.0628 2.55163C15.1213 2.65309 15.2509 2.68797 15.3524 2.62954Z" fill="#204F38"/>
<path d="M19.231 3.3968C19.2895 3.29533 19.2546 3.16571 19.1531 3.10728C19.0517 3.04885 18.9221 3.08373 18.8636 3.18519C18.8052 3.28665 18.8401 3.41627 18.9415 3.4747C19.043 3.53314 19.1726 3.49826 19.231 3.3968Z" fill="#204F38"/>
<path d="M18.4967 2.97382C18.5551 2.87236 18.5202 2.74274 18.4188 2.68431C18.3173 2.62587 18.1877 2.66075 18.1292 2.76221C18.0708 2.86367 18.1057 2.99329 18.2071 3.05173C18.3086 3.11016 18.4382 3.07528 18.4967 2.97382Z" fill="#204F38"/>
<path d="M17.7633 2.55079C17.8217 2.44933 17.7868 2.31971 17.6854 2.26127C17.5839 2.20284 17.4543 2.23772 17.3958 2.33918C17.3374 2.44064 17.3723 2.57026 17.4737 2.62869C17.5752 2.68713 17.7048 2.65225 17.7633 2.55079Z" fill="#204F38"/>
</g>
<defs>
<filter id="filter0_d_2_421" x="0.0673828" y="0.0356445" width="32.6865" height="26.9672" filterUnits="userSpaceOnUse" color-interpolation-filters="sRGB">
<feFlood flood-opacity="0" result="BackgroundImageFix"/>
<feColorMatrix in="SourceAlpha" type="matrix" values="0 0 0 0 0 0 0 0 0 0 0 0 0 0 0 0 0 0 127 0" result="hardAlpha"/>
<feOffset dy="4"/>
<feGaussianBlur stdDeviation="2"/>
<feComposite in2="hardAlpha" operator="out"/>
<feColorMatrix type="matrix" values="0 0 0 0 0 0 0 0 0 0 0 0 0 0 0 0 0 0 0.25 0"/>
<feBlend mode="normal" in2="BackgroundImageFix" result="effect1_dropShadow_2_421"/>
<feBlend mode="normal" in="SourceGraphic" in2="effect1_dropShadow_2_421" result="shape"/>
</filter>
</defs>
</svg>
