<svg width="26" height="24" viewBox="0 0 26 24" fill="none" xmlns="http://www.w3.org/2000/svg">
<path d="M21.0278 23.59H4.97282C3.74466 23.5891 2.56711 23.142 1.69867 22.3469C0.830232 21.5518 0.34188 20.4738 0.34082 19.3493V4.65066C0.34188 3.52626 0.830232 2.44819 1.69867 1.65311C2.56711 0.85804 3.74466 0.410943 4.97282 0.409973H21.0278C22.256 0.410943 23.4335 0.85804 24.302 1.65311C25.1704 2.44819 25.6588 3.52626 25.6598 4.65066V19.3493C25.6588 20.4738 25.1704 21.5518 24.302 22.3469C23.4335 23.142 22.256 23.5891 21.0278 23.59ZM4.97282 2.10643C4.23603 2.10716 3.52964 2.37545 3.00865 2.85242C2.48766 3.3294 2.19461 3.97612 2.19382 4.65066V19.3493C2.19461 20.0239 2.48766 20.6706 3.00865 21.1476C3.52964 21.6246 4.23603 21.8929 4.97282 21.8936H21.0278C21.7646 21.8929 22.471 21.6246 22.992 21.1476C23.513 20.6706 23.806 20.0239 23.8068 19.3493V4.65066C23.806 3.97612 23.513 3.3294 22.992 2.85242C22.471 2.37545 21.7646 2.10716 21.0278 2.10643H4.97282Z" fill="white"/>
<path d="M10.0629 18.0107C9.87056 18.0109 9.68287 17.9563 9.52596 17.8543C9.36905 17.7524 9.25071 17.6083 9.18737 17.442C9.12403 17.2757 9.11884 17.0954 9.17253 16.9263C9.22621 16.7572 9.33611 16.6076 9.48694 16.4982L15.6869 12.0003L9.48694 7.50231C9.39167 7.43312 9.31221 7.34743 9.25311 7.25013C9.19401 7.15282 9.15642 7.04581 9.14249 6.93521C9.12856 6.82461 9.13857 6.71257 9.17193 6.60551C9.20529 6.49845 9.26136 6.39845 9.33694 6.31122C9.41252 6.224 9.50612 6.15125 9.6124 6.09715C9.71868 6.04304 9.83556 6.00863 9.95637 5.99588C10.0772 5.98312 10.1996 5.99228 10.3165 6.02282C10.4334 6.05337 10.5427 6.1047 10.6379 6.17389L17.7489 11.3356C17.8584 11.415 17.9469 11.516 18.0077 11.6311C18.0685 11.7462 18.1001 11.8724 18.1001 12.0003C18.1001 12.1281 18.0685 12.2543 18.0077 12.3694C17.9469 12.4845 17.8584 12.5856 17.7489 12.6649L10.6379 17.8276C10.4748 17.9463 10.2714 18.0109 10.0629 18.0107Z" fill="white"/>
</svg>
