<svg width="27" height="25" viewBox="0 0 27 25" fill="none" xmlns="http://www.w3.org/2000/svg">
<path d="M13.5 24.056C20.6797 24.056 26.5 18.7274 26.5 12.1542C26.5 5.58107 20.6797 0.252472 13.5 0.252472C6.3203 0.252472 0.5 5.58107 0.5 12.1542C0.5 18.7274 6.3203 24.056 13.5 24.056Z" fill="#204F38"/>
<path d="M7.74475 12.5834L10.8558 15.4656C10.9403 15.544 11.0411 15.6062 11.1522 15.6487C11.2632 15.6912 11.3824 15.7132 11.5028 15.7132C11.6232 15.7132 11.7423 15.6912 11.8534 15.6487C11.9645 15.6062 12.0652 15.544 12.1498 15.4656L19.2498 8.90303C19.4076 8.7567 19.4961 8.55937 19.4961 8.35374C19.4961 8.14811 19.4076 7.95077 19.2498 7.80445C19.1723 7.73309 19.0803 7.67646 18.9788 7.63782C18.8774 7.59917 18.7686 7.57925 18.6588 7.57925C18.5489 7.57925 18.4401 7.59917 18.3387 7.63782C18.2373 7.67646 18.1452 7.73309 18.0678 7.80445L11.5068 13.8652L8.93677 11.4849C8.85923 11.4125 8.76675 11.3551 8.66468 11.3159C8.5626 11.2767 8.45299 11.2564 8.34229 11.2564C8.23159 11.2564 8.12198 11.2767 8.0199 11.3159C7.91782 11.3551 7.82535 11.4125 7.74781 11.4849C7.5896 11.6308 7.50056 11.828 7.5 12.0336C7.49944 12.2392 7.58735 12.4367 7.74475 12.5834Z" fill="white"/>
</svg>
