<svg width="26" height="24" viewBox="0 0 26 24" fill="none" xmlns="http://www.w3.org/2000/svg">
<path d="M13 23.4323C9.66113 23.4323 6.5221 22.2419 4.16117 20.0805C1.80023 17.919 0.5 15.0451 0.5 11.9883C0.5 8.93151 1.80023 6.05767 4.16117 3.89619C6.5221 1.7347 9.66113 0.544312 13 0.544312C16.3389 0.544312 19.4779 1.7347 21.8388 3.89619C24.1998 6.05767 25.5 8.93151 25.5 11.9883C25.5 15.0451 24.1998 17.919 21.8388 20.0805C19.4779 22.2419 16.3389 23.4323 13 23.4323Z" fill="white" fill-opacity="0.2"/>
<path d="M13 1.00195C9.79468 1.00195 6.78122 2.14472 4.51472 4.21975C2.24822 6.29477 1 9.05366 1 11.9882C1 14.9227 2.24822 17.6816 4.51472 19.7566C6.78122 21.8317 9.79468 22.9744 13 22.9744C16.2053 22.9744 19.2188 21.8317 21.4853 19.7566C23.7518 17.6816 25 14.9227 25 11.9882C25 9.05366 23.7518 6.29477 21.4853 4.21975C19.2188 2.14472 16.2053 1.00195 13 1.00195ZM13 0.0864258C20.1797 0.0864258 26 5.41503 26 11.9882C26 18.5614 20.1797 23.89 13 23.89C5.8203 23.89 0 18.5614 0 11.9882C0 5.41503 5.8203 0.0864258 13 0.0864258Z" fill="#204F38"/>
</svg>
