<svg width="35" height="39" viewBox="0 0 35 39" fill="none" xmlns="http://www.w3.org/2000/svg">
<path d="M33.066 36.949V33.065C33.066 31.0053 32.2478 29.03 30.7914 27.5736C29.335 26.1172 27.3597 25.299 25.3 25.299H9.766C7.70633 25.299 5.73102 26.1172 4.27461 27.5736C2.8182 29.03 2 31.0053 2 33.065V36.949" stroke="#9EA4AE" stroke-width="3" stroke-linecap="round" stroke-linejoin="round"/>
<path d="M25.2986 9.766C25.2986 11.3019 24.8432 12.8034 23.9899 14.0805C23.1366 15.3575 21.9237 16.3529 20.5048 16.9408C19.0858 17.5286 17.5243 17.6824 16.0179 17.3829C14.5115 17.0833 13.1277 16.3437 12.0416 15.2577C10.9554 14.1717 10.2157 12.7881 9.91595 11.2817C9.61618 9.77529 9.76983 8.21384 10.3575 6.79477C10.9451 5.3757 11.9403 4.16275 13.2173 3.30929C14.4943 2.45583 15.9957 2.0002 17.5316 2C19.5913 2 21.5666 2.8182 23.023 4.27461C24.4794 5.73102 25.2976 7.70633 25.2976 9.766H25.2986Z" stroke="#9EA4AE" stroke-width="3" stroke-linecap="round" stroke-linejoin="round"/>
</svg>
